<svg width="64" height="64" viewBox="0 0 64 64" fill="none" xmlns="http://www.w3.org/2000/svg">
<path d="M37.6677 56.6677C39.1664 56.1328 40.3913 55.0245 41.0728 53.5865C41.7543 52.1485 41.8366 50.4987 41.3017 49L30 53.0337C30.5349 54.5324 31.6433 55.7572 33.0812 56.4387C34.5192 57.1203 36.169 57.2026 37.6677 56.6677Z" stroke="black" stroke-width="2"/>
<path d="M53.1718 39.4784L18.1185 47.6801C18.1185 47.6801 20.6463 40.9265 17.9125 29.2421C15.8621 20.4788 20.5651 14.2433 28.3548 12.4208C36.1444 10.5982 43.1257 14.0997 45.1761 22.8631C47.91 34.5475 53.1718 39.4784 53.1718 39.4784Z" stroke="black" stroke-width="2"/>
<line x1="33.6876" y1="23.274" x2="39.496" y2="28.7751" stroke="black" stroke-width="2"/>
<path d="M38.8001 23L34.0001 29.4" stroke="black" stroke-width="2"/>
<line x1="23.6876" y1="24.274" x2="29.496" y2="29.7751" stroke="black" stroke-width="2"/>
<path d="M28.8001 24L24.0001 30.4" stroke="black" stroke-width="2"/>
</svg>
