<svg width="64" height="64" viewBox="0 0 64 64" fill="none" xmlns="http://www.w3.org/2000/svg">
<path d="M17.2725 21C17.2725 18.7909 19.0633 17 21.2725 17H43.2725C45.4816 17 47.2725 18.7909 47.2725 21V57L32.2725 50.7778L17.2725 57V21Z" fill="#FFFDFD" stroke="black" stroke-width="2"/>
<path d="M44.7203 17.136C42.8559 16.1437 48.3265 12.9873 48.6787 8.62808C49.0309 4.26883 51.9218 14.2187 49.0938 16.7666C46.2659 19.3144 46.5848 18.1282 44.7203 17.136Z" stroke="black" stroke-width="2"/>
<path d="M19.4792 17.1359C21.3436 16.1437 15.873 12.9873 15.5208 8.62807C15.1686 4.26882 12.2777 14.2187 15.1056 16.7666C17.9336 19.3144 17.6147 18.1282 19.4792 17.1359Z" stroke="black" stroke-width="2"/>
</svg>
