<svg width="64" height="64" viewBox="0 0 64 64" fill="none" xmlns="http://www.w3.org/2000/svg">
<path d="M44 12H20C17.7909 12 16 13.7909 16 16V48C16 50.2091 17.7909 52 20 52H44C46.2091 52 48 50.2091 48 48V16C48 13.7909 46.2091 12 44 12Z" stroke="black" stroke-width="2" stroke-linejoin="round"/>
<path d="M30 28H22V36H30V28Z" stroke="black" stroke-width="2" stroke-linejoin="round"/>
<path d="M42 28H34V36H42V28Z" stroke="black" stroke-width="2" stroke-linejoin="round"/>
<path d="M30 40H22V48H30V40Z" stroke="black" stroke-width="2" stroke-linejoin="round"/>
<path d="M42.0002 40H34.0002V48H42.0002V40Z" stroke="black" stroke-width="2" stroke-linejoin="round"/>
<path d="M42 16H22V24H42V16Z" stroke="black" stroke-width="2" stroke-linejoin="round"/>
<path d="M49.0152 30.5928L52.5001 40.0001L56.5001 34.3617L57 33.5" stroke="black" stroke-width="2" stroke-linecap="round"/>
<path d="M56.9405 12.4723C64.0059 14.2303 50.541 23.5528 51.0205 22.9872C51.5 22.4216 50.9363 20.2199 53.8768 18.3191C56.8174 16.4183 49.8752 10.7143 56.9405 12.4723Z" stroke="black" stroke-width="1.3"/>
<path d="M15.2527 30.0997L8.5 35.5L14.9997 41.9999L13 44" stroke="black" stroke-width="2" stroke-linecap="round"/>
<path d="M23.4209 53.0846L22.1046 62.1303" stroke="black" stroke-width="2" stroke-linecap="round"/>
<path d="M40.0085 52.8542L40.4375 62.1672" stroke="black" stroke-width="2" stroke-linecap="round"/>
<path d="M53.1383 30.887L62.2014 35.1132" stroke="black" stroke-width="2"/>
</svg>
