<svg width="64" height="64" viewBox="0 0 64 64" fill="none" xmlns="http://www.w3.org/2000/svg">
<path d="M52 14H12C10.8954 14 10 14.8954 10 16V52C10 53.1046 10.8954 54 12 54H52C53.1046 54 54 53.1046 54 52V16C54 14.8954 53.1046 14 52 14Z" stroke="black" stroke-width="2" stroke-linejoin="round"/>
<path d="M10 26H54" stroke="black" stroke-width="2" stroke-linejoin="round"/>
<path d="M35.549 46.3043V33.2134H37.1342V44.6424H37.2109L40.4069 42.5202V44.131L37.1342 46.3043H35.549ZM31.784 33.2134V34.3639L27.463 39.0941C26.9559 39.648 26.5383 40.1296 26.2102 40.5387C25.8821 40.952 25.6392 41.3398 25.4815 41.702C25.3196 42.0685 25.2386 42.452 25.2386 42.8526C25.2386 43.3128 25.3494 43.7112 25.571 44.0479C25.7883 44.3845 26.0866 44.6445 26.4659 44.8277C26.8451 45.011 27.2713 45.1026 27.7443 45.1026C28.2471 45.1026 28.686 44.9982 29.061 44.7894C29.4318 44.5848 29.7194 44.2972 29.924 43.9264C30.1242 43.5557 30.2244 43.121 30.2244 42.6225H31.7329C31.7329 43.3895 31.5561 44.0628 31.2024 44.6424C30.8487 45.2219 30.3671 45.6736 29.7578 45.9975C29.1441 46.3213 28.4559 46.4833 27.6931 46.4833C26.9261 46.4833 26.2464 46.3213 25.6541 45.9975C25.0617 45.6736 24.5973 45.2368 24.2606 44.6871C23.924 44.1374 23.7556 43.5259 23.7556 42.8526C23.7556 42.371 23.843 41.9002 24.0177 41.4399C24.1882 40.984 24.4865 40.4747 24.9126 39.9122C25.3345 39.354 25.9204 38.6722 26.6704 37.8668L29.6108 34.7219V34.6196H23.5255V33.2134H31.784Z" fill="black"/>
<path d="M35.549 46.3043H35.049C35.049 46.5804 35.2728 46.8043 35.549 46.8043V46.3043ZM35.549 33.2134V32.7134C35.2728 32.7134 35.049 32.9372 35.049 33.2134H35.549ZM37.1342 33.2134H37.6342C37.6342 32.9372 37.4103 32.7134 37.1342 32.7134V33.2134ZM37.1342 44.6424H36.6342C36.6342 44.9185 36.858 45.1424 37.1342 45.1424V44.6424ZM37.2109 44.6424V45.1424C37.3093 45.1424 37.4055 45.1133 37.4875 45.0589L37.2109 44.6424ZM40.4069 42.5202H40.9069C40.9069 42.336 40.8056 42.1667 40.6433 42.0796C40.4809 41.9925 40.2838 42.0018 40.1303 42.1037L40.4069 42.5202ZM40.4069 44.131L40.6835 44.5475C40.823 44.4549 40.9069 44.2985 40.9069 44.131H40.4069ZM37.1342 46.3043V46.8043C37.2326 46.8043 37.3288 46.7753 37.4108 46.7208L37.1342 46.3043ZM35.549 46.3043H36.049V33.2134H35.549H35.049V46.3043H35.549ZM35.549 33.2134V33.7134H37.1342V33.2134V32.7134H35.549V33.2134ZM37.1342 33.2134H36.6342V44.6424H37.1342H37.6342V33.2134H37.1342ZM37.1342 44.6424V45.1424H37.2109V44.6424V44.1424H37.1342V44.6424ZM37.2109 44.6424L37.4875 45.0589L40.6835 42.9367L40.4069 42.5202L40.1303 42.1037L36.9343 44.2258L37.2109 44.6424ZM40.4069 42.5202H39.9069V44.131H40.4069H40.9069V42.5202H40.4069ZM40.4069 44.131L40.1303 43.7145L36.8576 45.8878L37.1342 46.3043L37.4108 46.7208L40.6835 44.5475L40.4069 44.131ZM37.1342 46.3043V45.8043H35.549V46.3043V46.8043H37.1342V46.3043ZM31.784 33.2134H32.284C32.284 32.9372 32.0602 32.7134 31.784 32.7134V33.2134ZM31.784 34.3639L32.1532 34.7012C32.2374 34.609 32.284 34.4887 32.284 34.3639H31.784ZM27.463 39.0941L27.8318 39.4317L27.8322 39.4313L27.463 39.0941ZM26.2102 40.5387L25.8201 40.2258L25.8186 40.2278L26.2102 40.5387ZM25.4815 41.702L25.9388 41.9041L25.9399 41.9016L25.4815 41.702ZM25.571 44.0479L25.9911 43.7767L25.9886 43.773L25.571 44.0479ZM26.4659 44.8277L26.2483 45.2779L26.2483 45.2779L26.4659 44.8277ZM29.061 44.7894L28.8195 44.3516L28.8178 44.3525L29.061 44.7894ZM29.924 43.9264L30.3618 44.168L30.3639 44.1641L29.924 43.9264ZM30.2244 42.6225V42.1225C29.9482 42.1225 29.7244 42.3463 29.7244 42.6225H30.2244ZM31.7329 42.6225H32.2329C32.2329 42.3463 32.0091 42.1225 31.7329 42.1225V42.6225ZM31.2024 44.6424L30.7756 44.3819L30.7756 44.3819L31.2024 44.6424ZM29.7578 45.9975L29.9911 46.4397L29.9924 46.439L29.7578 45.9975ZM25.6541 45.9975L25.4142 46.4362L25.4142 46.4362L25.6541 45.9975ZM24.0177 41.4399L24.4852 41.6174L24.4861 41.615L24.0177 41.4399ZM24.9126 39.9122L25.3111 40.2142L25.3115 40.2137L24.9126 39.9122ZM26.6704 37.8668L26.3052 37.5253L26.3045 37.526L26.6704 37.8668ZM29.6108 34.7219L29.976 35.0634C30.0626 34.9708 30.1108 34.8487 30.1108 34.7219H29.6108ZM29.6108 34.6196H30.1108C30.1108 34.3435 29.8869 34.1196 29.6108 34.1196V34.6196ZM23.5255 34.6196H23.0255C23.0255 34.8958 23.2494 35.1196 23.5255 35.1196V34.6196ZM23.5255 33.2134V32.7134C23.2494 32.7134 23.0255 32.9372 23.0255 33.2134H23.5255ZM31.784 33.2134H31.284V34.3639H31.784H32.284V33.2134H31.784ZM31.784 34.3639L31.4149 34.0267L27.0939 38.7568L27.463 39.0941L27.8322 39.4313L32.1532 34.7012L31.784 34.3639ZM27.463 39.0941L27.0942 38.7565C26.5826 39.3153 26.1573 39.8055 25.8201 40.2258L26.2102 40.5387L26.6002 40.8515C26.9193 40.4536 27.3292 39.9807 27.8318 39.4317L27.463 39.0941ZM26.2102 40.5387L25.8186 40.2278C25.4719 40.6646 25.2027 41.0896 25.023 41.5025L25.4815 41.702L25.9399 41.9016C26.0756 41.59 26.2923 41.2395 26.6018 40.8495L26.2102 40.5387ZM25.4815 41.702L25.0241 41.4999C24.8341 41.9301 24.7386 42.3824 24.7386 42.8526H25.2386H25.7386C25.7386 42.5216 25.805 42.2069 25.9388 41.9041L25.4815 41.702ZM25.2386 42.8526H24.7386C24.7386 43.3963 24.8707 43.8934 25.1533 44.3228L25.571 44.0479L25.9886 43.773C25.8281 43.5291 25.7386 43.2294 25.7386 42.8526H25.2386ZM25.571 44.0479L25.1509 44.3191C25.4206 44.7369 25.7908 45.0569 26.2483 45.2779L26.4659 44.8277L26.6834 44.3775C26.3824 44.2321 26.156 44.0322 25.991 43.7767L25.571 44.0479ZM26.4659 44.8277L26.2483 45.2779C26.7034 45.4978 27.2053 45.6026 27.7443 45.6026V45.1026V44.6026C27.3373 44.6026 26.9869 44.5242 26.6834 44.3775L26.4659 44.8277ZM27.7443 45.1026V45.6026C28.3176 45.6026 28.843 45.483 29.3043 45.2262L29.061 44.7894L28.8178 44.3525C28.529 44.5133 28.1767 44.6026 27.7443 44.6026V45.1026ZM29.061 44.7894L29.3026 45.2272C29.7559 44.977 30.1116 44.6214 30.3617 44.168L29.924 43.9264L29.4862 43.6849C29.3272 43.973 29.1076 44.1926 28.8195 44.3516L29.061 44.7894ZM29.924 43.9264L30.3639 44.1641C30.6102 43.7081 30.7244 43.1888 30.7244 42.6225H30.2244H29.7244C29.7244 43.0533 29.6383 43.4034 29.4841 43.6888L29.924 43.9264ZM30.2244 42.6225V43.1225H31.7329V42.6225V42.1225H30.2244V42.6225ZM31.7329 42.6225H31.2329C31.2329 43.3098 31.0754 43.8906 30.7756 44.3819L31.2024 44.6424L31.6292 44.9028C32.0367 44.235 32.2329 43.4692 32.2329 42.6225H31.7329ZM31.2024 44.6424L30.7756 44.3819C30.4694 44.8836 30.0547 45.2734 29.5231 45.556L29.7578 45.9975L29.9924 46.439C30.6795 46.0738 31.228 45.5602 31.6292 44.9028L31.2024 44.6424ZM29.7578 45.9975L29.5244 45.5553C28.9896 45.8375 28.3828 45.9833 27.6931 45.9833V46.4833V46.9833C28.529 46.9833 29.2986 46.8052 29.9911 46.4397L29.7578 45.9975ZM27.6931 46.4833V45.9833C26.9984 45.9833 26.4032 45.8372 25.8939 45.5588L25.6541 45.9975L25.4142 46.4362C26.0896 46.8055 26.8538 46.9833 27.6931 46.9833V46.4833ZM25.6541 45.9975L25.8939 45.5588C25.3745 45.2747 24.9759 44.8976 24.687 44.426L24.2606 44.6871L23.8342 44.9482C24.2187 45.576 24.749 46.0725 25.4142 46.4362L25.6541 45.9975ZM24.2606 44.6871L24.687 44.426C24.4007 43.9584 24.2556 43.438 24.2556 42.8526H23.7556H23.2556C23.2556 43.6137 23.4472 44.3163 23.8342 44.9482L24.2606 44.6871ZM23.7556 42.8526H24.2556C24.2556 42.4331 24.3315 42.0222 24.4852 41.6174L24.0177 41.4399L23.5503 41.2625C23.3545 41.7781 23.2556 42.309 23.2556 42.8526H23.7556ZM24.0177 41.4399L24.4861 41.615C24.6338 41.2199 24.9024 40.7537 25.3111 40.2142L24.9126 39.9122L24.5141 39.6103C24.0705 40.1957 23.7426 40.7481 23.5494 41.2649L24.0177 41.4399ZM24.9126 39.9122L25.3115 40.2137C25.719 39.6745 26.2922 39.0066 27.0363 38.2075L26.6704 37.8668L26.3045 37.526C25.5486 38.3378 24.95 39.0335 24.5137 39.6108L24.9126 39.9122ZM26.6704 37.8668L27.0356 38.2083L29.976 35.0634L29.6108 34.7219L29.2455 34.3804L26.3052 37.5253L26.6704 37.8668ZM29.6108 34.7219H30.1108V34.6196H29.6108H29.1108V34.7219H29.6108ZM29.6108 34.6196V34.1196H23.5255V34.6196V35.1196H29.6108L29.6108 34.6196ZM23.5255 34.6196H24.0255V33.2134H23.5255H23.0255V34.6196H23.5255ZM23.5255 33.2134V33.7134H31.784V33.2134V32.7134H23.5255V33.2134Z" fill="black"/>
</svg>
