<svg width="64" height="64" viewBox="0 0 64 64" fill="none" xmlns="http://www.w3.org/2000/svg">
<path d="M12.9234 14C12.9234 14.6667 12.9234 15.3333 12.9234 16C15.0924 16 17.2614 16 19.4304 16C27.2614 16 35.0924 16 42.9234 16L41.9712 15.3053C44.6314 25.4382 47.9254 38.8061 40.1758 46.2036L38.7139 47.3137L40.4394 47.94C40.7793 48.0656 40.969 48.1464 41.1802 48.2695C41.2635 48.3127 41.3228 48.3949 41.2365 48.2863C41.1938 48.2205 41.1171 48.0833 41.134 47.8546C41.1518 47.6339 41.272 47.489 41.2996 47.4636C41.3655 47.4063 41.2817 47.4752 41.1984 47.508C41.1148 47.5459 40.9939 47.5915 40.8445 47.6378C40.6164 47.7097 40.2798 47.7903 39.9991 47.8466C38.7932 48.0858 37.5 48.2178 36.2284 48.3235C33.6384 48.5298 31.0569 48.6067 28.4535 48.6231C25.8531 48.6352 23.2591 48.5826 20.6673 48.4229C19.3922 48.3421 18.0862 48.2344 16.8327 48.0591C16.5232 48.0153 16.2245 47.9685 15.9056 47.9094C15.7527 47.881 15.6087 47.852 15.4744 47.8225C15.3189 47.7885 15.1615 47.7502 15.0292 47.7138C14.7943 47.6528 14.4701 47.5337 14.3935 47.4781C14.3745 47.4667 14.386 47.4683 14.4249 47.5115C14.4556 47.5377 14.5935 47.7403 14.5814 47.9749C14.5245 48.4294 14.3802 48.3931 14.4493 48.3677C14.4817 48.3362 14.7088 48.2132 14.8278 48.1637C14.9775 48.0972 15.1664 48.0233 15.3925 47.9453L17.1611 47.335L15.671 46.2036C9.19486 40.5674 10.7464 29.9272 12.3061 21.5011C12.7402 19.4167 13.2617 17.3 13.8757 15.3053C13.2409 15.1018 12.606 14.8982 11.9712 14.6947C11.317 16.8205 10.7965 18.9454 10.3477 21.0952C8.88934 29.7658 6.62868 40.6304 14.4616 47.7964L14.7401 46.0547C14.1961 46.2545 13.8221 46.3678 13.2455 46.7706C13.1762 46.8225 13.005 46.9579 12.8708 47.1352C12.7345 47.3315 12.6105 47.4925 12.5821 47.9249C12.559 48.3139 12.7974 48.7056 12.9244 48.8339C13.0536 48.9795 13.1874 49.0808 13.3212 49.1664C13.4676 49.2581 13.5635 49.3033 13.656 49.3467C13.751 49.3903 13.8485 49.4302 13.9497 49.4678C14.1702 49.5487 14.3265 49.5943 14.5002 49.6426C14.6719 49.6897 14.8634 49.7361 15.046 49.7761C15.2038 49.8107 15.3684 49.8438 15.54 49.8757C15.8975 49.942 16.2213 49.9925 16.5532 50.0395C17.8932 50.2266 19.2341 50.3358 20.5422 50.419C23.1967 50.5824 25.8244 50.6352 28.4642 50.6231C31.1077 50.6062 33.7228 50.5292 36.3904 50.3169C37.707 50.2064 39.0322 50.0761 40.3967 49.8067C41.1385 49.6001 41.6647 49.6957 42.733 48.8584C42.879 48.7151 43.0992 48.4014 43.1264 48.0293C43.1537 47.6372 43.0333 47.3813 42.8949 47.1684C42.8249 47.0648 42.7489 46.9785 42.6708 46.9024C42.6171 46.8504 42.5739 46.813 42.5241 46.7727C42.4265 46.6941 42.3253 46.625 42.2186 46.5602C41.9723 46.4139 41.8489 46.3598 41.6742 46.2805C41.5053 46.2056 41.322 46.1327 41.1218 46.06L41.3853 47.7964C50.6328 38.4738 46.4451 25.2591 43.8757 14.6947L43.6529 14H42.9234C35.0924 14 27.2614 14 19.4304 14C17.2614 14 15.0924 14 12.9234 14ZM12.9234 16V14H12.1939L11.9712 14.6947L13.8757 15.3053L12.9234 16Z" fill="black"/>
<path d="M44.0466 17.6786C50.3907 17.0991 52.5086 18.5096 52.9408 23.7278C53.373 28.946 51.4746 31.6839 45.1305 32.2633" stroke="black" stroke-width="2"/>
<path d="M17.9233 30C24.59 22 31.2567 22 37.9233 30" stroke="black" stroke-width="2"/>
<path d="M37.9233 29C31.2567 37 24.59 37 17.9233 29" stroke="black" stroke-width="2"/>
<ellipse cx="29.9233" cy="29.5" rx="2" ry="2.5" fill="black"/>
<path d="M15.9233 25C23.9233 18.3333 31.9233 18.3333 39.9233 25" stroke="black" stroke-width="2" stroke-linecap="round"/>
<path d="M25.4094 11.8983C27.7715 6.69323 21.2086 8.9176 23.0656 3.17383" stroke="black" stroke-width="1.5" stroke-linecap="round"/>
<path d="M32.3686 11.9103C34.7308 6.70519 28.1678 8.92956 30.0248 3.18579" stroke="black" stroke-width="1.5" stroke-linecap="round"/>
</svg>
