<svg width="64" height="64" viewBox="0 0 64 64" fill="none" xmlns="http://www.w3.org/2000/svg">
<path d="M21 21.1807C30.8158 30.9874 38.3028 37.8037 42.8801 42.9597" stroke="black" stroke-width="2" stroke-linecap="round" stroke-linejoin="round"/>
<path d="M21.0001 42.8193C30.8159 33.0126 38.0129 25.9066 42.8449 21.0051" stroke="black" stroke-width="2" stroke-linecap="round" stroke-linejoin="round"/>
<path d="M37.2007 27.71C37.6693 27.6879 38.0206 27.6863 38.2905 27.7324C38.5477 27.7764 38.648 27.8501 38.7007 27.916C38.7612 27.9917 38.856 28.1781 38.856 28.6338C38.8559 30.4015 37.4208 31.8359 35.6499 31.8359C33.879 31.8359 32.4449 30.4015 32.4448 28.6338C32.4448 28.1781 32.5387 27.9917 32.5991 27.916C32.6518 27.8501 32.752 27.7764 33.0093 27.7324C33.2792 27.6863 33.6304 27.6879 34.0991 27.71C34.5436 27.7309 35.0896 27.7695 35.6499 27.7695C36.2102 27.7695 36.7563 27.7309 37.2007 27.71Z" fill="white" stroke="black" stroke-width="1.38993"/>
<path d="M36.5308 28.6839C36.5308 29.1421 36.1591 29.5135 35.7005 29.5135C35.2419 29.5135 34.8701 29.1421 34.8701 28.6839C34.8701 28.2258 35.2419 27.8544 35.7005 27.8544C36.1591 27.8544 36.5308 28.2258 36.5308 28.6839Z" fill="black"/>
<path d="M29.4512 27.71C29.9198 27.6879 30.2711 27.6863 30.541 27.7324C30.7982 27.7764 30.8984 27.8501 30.9512 27.916C31.0116 27.9917 31.1064 28.1781 31.1064 28.6338C31.1064 30.4015 29.6713 31.8359 27.9004 31.8359C26.1295 31.8359 24.6954 30.4015 24.6953 28.6338C24.6953 28.1781 24.7891 27.9917 24.8496 27.916C24.9023 27.8501 25.0025 27.7764 25.2598 27.7324C25.5297 27.6863 25.8809 27.6879 26.3496 27.71C26.794 27.7309 27.3401 27.7695 27.9004 27.7695C28.4607 27.7695 29.0067 27.7309 29.4512 27.71Z" fill="white" stroke="black" stroke-width="1.38993"/>
<ellipse cx="27.9505" cy="28.6839" rx="0.830349" ry="0.829576" fill="black"/>
</svg>
