<svg width="64" height="64" viewBox="0 0 64 64" fill="none" xmlns="http://www.w3.org/2000/svg">
<path d="M16 12H44L52 20V48C52 49.0609 51.5786 50.0783 50.8284 50.8284C50.0783 51.5786 49.0609 52 48 52H16C14.9391 52 13.9217 51.5786 13.1716 50.8284C12.4214 50.0783 12 49.0609 12 48V16C12 14.9391 12.4214 13.9217 13.1716 13.1716C13.9217 12.4214 14.9391 12 16 12Z" stroke="black" stroke-width="2" stroke-linejoin="round"/>
<path d="M44 12V20H52" stroke="black" stroke-width="2"/>
<path d="M24.5894 32.7832C24.5894 33.0615 24.5571 33.3354 24.4927 33.605C24.4282 33.8716 24.3301 34.1133 24.1982 34.3301C24.0664 34.5439 23.9009 34.7153 23.7017 34.8442C23.5054 34.9731 23.2725 35.0376 23.0029 35.0376C22.7568 35.0376 22.5518 34.9717 22.3877 34.8398C22.2236 34.708 22.1167 34.5454 22.0669 34.3521H22.0098C21.8926 34.5425 21.73 34.7051 21.522 34.8398C21.3169 34.9717 21.0649 35.0376 20.7661 35.0376C20.2681 35.0376 19.8843 34.8823 19.6147 34.5718C19.3481 34.2583 19.2148 33.8452 19.2148 33.3325C19.2148 32.9341 19.2969 32.5825 19.4609 32.2778C19.625 31.9702 19.8579 31.7285 20.1597 31.5527C20.4644 31.377 20.8218 31.2891 21.2319 31.2891C21.5044 31.2891 21.7769 31.314 22.0493 31.3638C22.3247 31.4106 22.5415 31.4619 22.6997 31.5176L22.6118 33.3237C22.606 33.4087 22.6016 33.4819 22.5986 33.5435C22.5986 33.6021 22.5986 33.6431 22.5986 33.6665C22.5986 33.9507 22.644 34.1411 22.7349 34.2378C22.8257 34.3315 22.9326 34.3784 23.0557 34.3784C23.2197 34.3784 23.3574 34.3066 23.4688 34.1631C23.583 34.0166 23.6694 33.8232 23.728 33.583C23.7866 33.3398 23.8159 33.0718 23.8159 32.7788C23.8159 32.2485 23.7075 31.7959 23.4907 31.4209C23.2769 31.0459 22.9824 30.7603 22.6074 30.564C22.2324 30.3677 21.8047 30.2695 21.3242 30.2695C20.832 30.2695 20.3955 30.3472 20.0146 30.5024C19.6367 30.6577 19.3174 30.876 19.0566 31.1572C18.7988 31.4385 18.604 31.7725 18.4722 32.1592C18.3403 32.543 18.2744 32.9663 18.2744 33.4292C18.2744 33.9976 18.3755 34.481 18.5776 34.8794C18.7798 35.2749 19.0771 35.5752 19.4697 35.7803C19.8652 35.9854 20.3472 36.0879 20.9155 36.0879C21.27 36.0879 21.623 36.0498 21.9746 35.9736C22.3291 35.8945 22.6499 35.8008 22.937 35.6924V36.3999C22.6646 36.5142 22.3599 36.6064 22.0229 36.6768C21.686 36.7471 21.3228 36.7822 20.9331 36.7822C20.2095 36.7822 19.5898 36.6504 19.0742 36.3867C18.5615 36.123 18.1675 35.7422 17.8921 35.2441C17.6196 34.7461 17.4834 34.1499 17.4834 33.4556C17.4834 32.8989 17.5713 32.3862 17.7471 31.9175C17.9258 31.4458 18.1821 31.0356 18.5161 30.687C18.8501 30.3354 19.2529 30.063 19.7246 29.8696C20.1992 29.6763 20.731 29.5796 21.3198 29.5796C21.9556 29.5796 22.5195 29.71 23.0117 29.9707C23.5039 30.2285 23.8892 30.5962 24.1675 31.0737C24.4487 31.5513 24.5894 32.1211 24.5894 32.7832ZM20.0498 33.3501C20.0498 33.7075 20.123 33.9683 20.2695 34.1323C20.416 34.2964 20.6152 34.3784 20.8672 34.3784C21.1895 34.3784 21.4209 34.2598 21.5615 34.0225C21.7021 33.7852 21.7842 33.4731 21.8076 33.0864L21.8604 32.0273C21.7842 32.0068 21.6948 31.9907 21.5923 31.979C21.4897 31.9644 21.3799 31.957 21.2627 31.957C20.9697 31.957 20.7339 32.0244 20.5552 32.1592C20.3794 32.291 20.2505 32.4639 20.1685 32.6777C20.0894 32.8887 20.0498 33.1128 20.0498 33.3501ZM29.4277 32.168L29.1816 33.4248H30.3682V34.1587H29.041L28.6851 36H27.9028L28.2632 34.1587H27.1646L26.8174 36H26.0527L26.3911 34.1587H25.2925V33.4248H26.5317L26.7822 32.168H25.6177V31.4341H26.9141L27.2656 29.5796H28.0479L27.6963 31.4341H28.8037L29.1597 29.5796H29.9199L29.5684 31.4341H30.6758V32.168H29.4277ZM27.3052 33.4248H28.4038L28.6543 32.168H27.5513L27.3052 33.4248ZM33.1719 36.5229V35.6177C32.8086 35.6118 32.4731 35.5796 32.1655 35.521C31.8608 35.4595 31.5972 35.3804 31.3745 35.2837V34.3477C31.6001 34.4531 31.8784 34.5483 32.2095 34.6333C32.5405 34.7183 32.8613 34.7666 33.1719 34.7783V33.1304C32.7471 32.9868 32.4014 32.8374 32.1348 32.6821C31.8711 32.5269 31.6777 32.3467 31.5547 32.1416C31.4316 31.9336 31.3701 31.6846 31.3701 31.3945C31.3701 31.0957 31.4448 30.8394 31.5942 30.6255C31.7466 30.4087 31.9575 30.2373 32.2271 30.1113C32.4995 29.9854 32.8145 29.9106 33.1719 29.8872V29.1709H33.7432V29.874C34.0684 29.8828 34.3687 29.9194 34.644 29.9839C34.9224 30.0454 35.1875 30.1318 35.4395 30.2432L35.1187 31.0605C34.8989 30.9727 34.6704 30.9009 34.4331 30.8452C34.1958 30.7896 33.9658 30.7515 33.7432 30.731V32.3394C34.1006 32.4565 34.4185 32.5825 34.6968 32.7173C34.978 32.8521 35.1978 33.022 35.356 33.2271C35.5171 33.4292 35.5977 33.6943 35.5977 34.0225C35.5977 34.4531 35.4395 34.8091 35.123 35.0903C34.8066 35.3687 34.3467 35.5356 33.7432 35.5913V36.5229H33.1719ZM33.7432 34.7432C34.0244 34.708 34.2339 34.6348 34.3716 34.5234C34.5093 34.4092 34.5781 34.2612 34.5781 34.0796C34.5781 33.9565 34.5488 33.8525 34.4902 33.7676C34.4346 33.6826 34.3452 33.6064 34.2222 33.5391C34.1021 33.4717 33.9424 33.4058 33.7432 33.3413V34.7432ZM33.1719 32.124V30.7485C33.002 30.7661 32.8584 30.8013 32.7412 30.854C32.624 30.9067 32.5361 30.9756 32.4775 31.0605C32.4189 31.1455 32.3896 31.2466 32.3896 31.3638C32.3896 31.4927 32.416 31.6025 32.4688 31.6934C32.5215 31.7842 32.605 31.8633 32.7192 31.9307C32.8364 31.998 32.9873 32.0625 33.1719 32.124ZM37.8213 29.4829C38.293 29.4829 38.6504 29.6587 38.8936 30.0103C39.1367 30.3589 39.2583 30.8525 39.2583 31.4912C39.2583 32.127 39.1411 32.6235 38.9067 32.981C38.6753 33.3384 38.3135 33.5171 37.8213 33.5171C37.3613 33.5171 37.0112 33.3384 36.771 32.981C36.5308 32.6235 36.4106 32.127 36.4106 31.4912C36.4106 30.8525 36.5234 30.3589 36.749 30.0103C36.9775 29.6587 37.335 29.4829 37.8213 29.4829ZM37.8257 30.2036C37.6353 30.2036 37.4946 30.3105 37.4038 30.5244C37.3159 30.7383 37.272 31.062 37.272 31.4956C37.272 31.9263 37.3159 32.2515 37.4038 32.4712C37.4946 32.688 37.6353 32.7964 37.8257 32.7964C38.019 32.7964 38.1626 32.688 38.2563 32.4712C38.353 32.2544 38.4014 31.9292 38.4014 31.4956C38.4014 31.0649 38.3545 30.7427 38.2607 30.5288C38.167 30.312 38.022 30.2036 37.8257 30.2036ZM42.1367 29.5752L38.5728 36H37.7246L41.2886 29.5752H42.1367ZM42.0181 32.0537C42.4897 32.0537 42.8472 32.2295 43.0903 32.5811C43.3364 32.9297 43.4595 33.4233 43.4595 34.062C43.4595 34.6948 43.3423 35.1899 43.1079 35.5474C42.8765 35.9048 42.5132 36.0835 42.0181 36.0835C41.5581 36.0835 41.208 35.9048 40.9678 35.5474C40.7275 35.1899 40.6074 34.6948 40.6074 34.062C40.6074 33.4233 40.7202 32.9297 40.9458 32.5811C41.1743 32.2295 41.5317 32.0537 42.0181 32.0537ZM42.0225 32.7744C41.832 32.7744 41.6914 32.8813 41.6006 33.0952C41.5127 33.3091 41.4688 33.6328 41.4688 34.0664C41.4688 34.4971 41.5127 34.8223 41.6006 35.042C41.6914 35.2588 41.832 35.3672 42.0225 35.3672C42.2188 35.3672 42.3638 35.2603 42.4575 35.0464C42.5513 34.8296 42.5981 34.5029 42.5981 34.0664C42.5981 33.6357 42.5513 33.3135 42.4575 33.0996C42.3638 32.8828 42.2188 32.7744 42.0225 32.7744ZM45.4546 34.04H44.6768L44.4658 29.5752H45.6655L45.4546 34.04ZM44.4131 35.4551C44.4131 35.2148 44.4746 35.0464 44.5977 34.9497C44.7236 34.8501 44.8774 34.8003 45.0591 34.8003C45.2378 34.8003 45.3901 34.8501 45.5161 34.9497C45.6421 35.0464 45.7051 35.2148 45.7051 35.4551C45.7051 35.6895 45.6421 35.8594 45.5161 35.9648C45.3901 36.0674 45.2378 36.1187 45.0591 36.1187C44.8774 36.1187 44.7236 36.0674 44.5977 35.9648C44.4746 35.8594 44.4131 35.6895 44.4131 35.4551Z" fill="black"/>
</svg>
