<svg width="64" height="64" viewBox="0 0 64 64" fill="none" xmlns="http://www.w3.org/2000/svg">
<path d="M48 20H16C14.8954 20 14 20.8954 14 22V30.5V34V36.5V38.5V42C14 43.1046 14.3954 44 15.5 44H48C49.1046 44 50 43.1046 50 42V22C50 20.8954 49.1046 20 48 20Z" stroke="black" stroke-width="2"/>
<path d="M14 20L32 34L41 27L50 20" stroke="black" stroke-width="2"/>
<path d="M44.6556 15.3461C44.4488 15.8875 43.9261 17.962 43.203 18.1618C42.5667 18.3376 42.1461 17.9625 41.5432 17.1403C41.048 16.4651 39.3395 14.4282 39.3857 14.825C39.4198 15.1184 38.7733 17.1403 38.7733 18.0664C38.7733 18.6359 39.3857 19.2948 40.5107 19.4753C40.9128 19.5398 40.7214 20.3214 40.5554 20.5896C40.3755 20.8805 40.1106 21.1605 39.9929 21.4704C39.7875 22.0114 39.6993 22.6971 40.0285 23.1331C40.4067 23.6342 41.1511 24.4789 40.9961 25.1826C40.6256 26.8646 40.9425 26.8551 41.5432 27.6717C41.9249 28.1906 42.5316 28.3569 43.2253 28.7778C43.7962 29.1241 44.3058 29.5681 45.0741 29.7169C45.8031 29.8582 46.8559 30.4128 48.1782 29.7035C48.8802 29.3269 49.5209 29.1494 51.4041 28.3284C52.2904 27.942 52.7262 27.5581 53.2868 27.3444C54.4343 26.907 56.3075 26.4704 56.707 25.9954C56.7964 25.8891 56.8529 25.7538 56.8032 25.6666C56.7535 25.5794 56.6021 25.5414 56.4485 25.5029C55.8363 25.3493 55.2631 25.4399 54.1504 25.5142C53.4757 25.5592 52.7089 25.7766 52.3896 25.3952C52.3206 25.3127 52.317 25.1535 52.632 25.0471C54.2788 24.491 55.6233 24.1885 55.8919 23.561C56.1076 23.0571 55.9209 22.3835 56.1721 21.831C56.4238 21.2773 57.4352 20.0542 58.4331 18.584C59.4083 17.1473 59.9728 15.6743 59.6972 16.064C59.2701 16.668 58.8814 17.48 57.9149 17.9469C57.0375 18.3707 54.3611 19.9755 53.0966 19.377C52.9878 19.3255 52.9134 19.2264 52.9053 19.1071C52.8973 18.9878 52.9352 18.8371 53.22 18.5958C54.5239 17.4914 55.4174 16.9516 55.9076 16.3232C56.3283 15.7838 57.1564 14.9882 56.8716 13.8964C56.4994 12.47 55.8935 10.2364 55.5453 10.9046C55.4835 11.0232 55.1585 11.3921 54.8364 11.9479C54.5161 12.5007 54.9292 13.3162 54.3379 14.2624C54.1411 14.5773 53.7326 15.0409 52.9719 15.4251C51.7452 16.0446 50.461 17.0636 50.0076 16.604C49.9444 16.5399 49.9974 16.4032 50.0807 16.261C50.419 15.6833 50.7127 15.0004 50.6274 14.2959C50.4989 13.2337 49.8938 11.9345 49.0357 10.8661C48.3167 9.97074 49.0231 7.05217 48.239 7.46315C48.0731 7.55011 47.86 7.78329 47.6041 8.0025C47.0479 8.47899 46.4524 9.04985 46.1143 9.64371C45.745 10.2922 45.0903 11.1396 44.9946 11.7671C44.9015 12.3774 44.8718 12.9611 44.8827 13.5915C44.8938 14.234 44.8484 14.8413 44.6556 15.3461Z" stroke="black" stroke-width="1.4" stroke-linecap="round"/>
</svg>
