<svg width="64" height="64" viewBox="0 0 64 64" fill="none" xmlns="http://www.w3.org/2000/svg">
<path d="M15.0408 23.1956L32.0011 22.0343L49.959 20.8047" stroke="black" stroke-width="2" stroke-linecap="round" stroke-linejoin="round"/>
<path d="M15.0464 30.3314C28.6525 31.6347 36.2808 32.3653 49.8869 33.6686" stroke="black" stroke-width="2" stroke-linecap="round" stroke-linejoin="round"/>
<path d="M15.0005 40.9999C14.7353 40.9999 14.4809 41.1052 14.2934 41.2928C14.1058 41.4803 14.0005 41.7347 14.0005 41.9999C14.0005 42.2651 14.1058 42.5194 14.2934 42.707C14.4809 42.8945 14.7353 42.9999 15.0005 42.9999C15.5931 42.9999 16.1702 42.9999 16.7532 42.9999C24.3384 42.9999 31.9125 42.9999 39.5005 42.9999C41.0818 42.9999 42.6701 42.9999 44.2546 42.9999C45.5865 42.9999 46.9193 42.9999 48.2513 42.9999C48.8346 42.9999 49.4203 42.9999 50.0005 42.9999C50.2657 42.9999 50.5201 42.8945 50.7076 42.707C50.8951 42.5194 51.0005 42.2651 51.0005 41.9999C51.0005 41.7347 50.8951 41.4803 50.7076 41.2928C50.5201 41.1052 50.2657 40.9999 50.0005 40.9999C49.4203 40.9999 48.8346 40.9999 48.2513 40.9999C46.9193 40.9999 45.5865 40.9999 44.2546 40.9999C42.6701 40.9999 41.0818 40.9999 39.5005 40.9999C31.9125 40.9999 24.3384 40.9999 16.7532 40.9999C16.1702 40.9999 15.5931 40.9999 15.0005 40.9999Z" fill="black"/>
</svg>
