<svg width="64" height="64" viewBox="0 0 64 64" fill="none" xmlns="http://www.w3.org/2000/svg">
<path d="M32.0639 49.0519C32.0639 49.0519 18.0639 39.0519 14.0639 29.0519C10.0639 19.0519 18.0639 11.0519 26.0639 15.0519C30.0639 17.0519 32.0639 21.0519 32.0639 21.0519C32.0639 21.0519 34.0639 17.0519 38.0639 15.0519C46.0639 11.0519 54.0639 19.0519 50.0639 29.0519C46.0639 39.0519 32.0639 49.0519 32.0639 49.0519Z" stroke="black" stroke-width="2"/>
<path d="M26.064 30.5519C26.8924 30.5519 27.564 29.8803 27.564 29.0519C27.564 28.2235 26.8924 27.5519 26.064 27.5519C25.2355 27.5519 24.564 28.2235 24.564 29.0519C24.564 29.8803 25.2355 30.5519 26.064 30.5519Z" fill="black"/>
<path d="M38.064 30.5519C38.8924 30.5519 39.564 29.8804 39.564 29.0519C39.564 28.2235 38.8924 27.5519 38.064 27.5519C37.2355 27.5519 36.564 28.2235 36.564 29.0519C36.564 29.8804 37.2355 30.5519 38.064 30.5519Z" fill="black"/>
<path d="M28.064 38.0519C30.7306 36.7186 33.3973 36.7186 36.064 38.0519" stroke="black" stroke-width="2" stroke-linecap="round"/>
</svg>
