<svg width="64" height="64" viewBox="0 0 64 64" fill="none" xmlns="http://www.w3.org/2000/svg">
<path d="M52 52V41.0007V30.0015H55.9478L32 10L7.94775 30.0015H12V52" stroke="black" stroke-width="2"/>
<path d="M37 52V40H27V52" stroke="black" stroke-width="2"/>
<path d="M27 30.258C27 31.2201 25.2091 32 23 32C20.7909 32 19 31.2201 19 30.258C19 29.296 20.7909 31.334 23 31.334C25.2091 31.334 27 29.296 27 30.258Z" fill="black"/>
<path d="M45 30.258C45 31.2201 43.2091 32 41 32C38.7909 32 37 31.2201 37 30.258C37 29.296 38.7909 31.334 41 31.334C43.2091 31.334 45 29.296 45 30.258Z" fill="black"/>
<path d="M12 53L27 53M37 53H52" stroke="black" stroke-width="2" stroke-linecap="square"/>
<path d="M8.1113 13.939L4.53291 12.1808L4.92186 11.3892L8.15462 9.74868L6.31292 8.84378L6.8249 7.80177L10.2094 9.46472L9.78873 10.3209L6.66042 11.9326L8.62328 12.897L8.1113 13.939ZM12.1265 15.9118L8.54806 14.1536L8.93701 13.362L12.1698 11.7215L10.3281 10.8166L10.8401 9.77457L14.2246 11.4375L13.8039 12.2937L10.6756 13.9054L12.6384 14.8698L12.1265 15.9118ZM16.1416 17.8846L12.5632 16.1264L12.9522 15.3348L16.1849 13.6943L14.3432 12.7894L14.8552 11.7474L18.2397 13.4103L17.819 14.2666L14.6907 15.8782L16.6536 16.8426L16.1416 17.8846Z" fill="black"/>
</svg>
