<svg width="64" height="64" viewBox="0 0 64 64" fill="none" xmlns="http://www.w3.org/2000/svg">
<path d="M32 14C23.1111 14 16 22.2609 16 32.1739C16 39.5914 23.1664 44.3447 24.6298 50.0222C24.9055 51.0918 25.7843 52 26.8889 52H37.1111C38.2157 52 39.0945 51.0918 39.3702 50.0222C40.8336 44.3447 48 39.5914 48 32.1739C48 22.2609 40.8889 14 32 14Z" stroke="black" stroke-width="2"/>
<path d="M36 52H28C27.4477 52 27 52.4477 27 53V58C27 58.5523 27.4477 59 28 59H36C36.5523 59 37 58.5523 37 58V53C37 52.4477 36.5523 52 36 52Z" stroke="black" stroke-width="1.5"/>
<path d="M34 59H30C29.4477 59 29 59.4477 29 60V61C29 61.5523 29.4477 62 30 62H34C34.5523 62 35 61.5523 35 61V60C35 59.4477 34.5523 59 34 59Z" stroke="black" stroke-width="1.5"/>
<path d="M22.4961 10.8759L21.1031 8.88649L19.6282 6.78009" stroke="black" stroke-width="2" stroke-linecap="round" stroke-linejoin="round"/>
<path d="M32 9V6.57143V4" stroke="black" stroke-width="2" stroke-linecap="round" stroke-linejoin="round"/>
<path d="M42 10.9149L43.393 8.92555L44.8679 6.81916" stroke="black" stroke-width="2" stroke-linecap="round" stroke-linejoin="round"/>
<path d="M27 56L32.3714 56L37 56" stroke="black" stroke-width="1.5" stroke-linecap="round" stroke-linejoin="round"/>
<path d="M46.9165 16.3342L49.1986 15.5036L51.615 14.6241" stroke="black" stroke-width="2" stroke-linecap="round" stroke-linejoin="round"/>
<path d="M17.5212 16.3342L15.2391 15.5036L12.8228 14.6241" stroke="black" stroke-width="2" stroke-linecap="round" stroke-linejoin="round"/>
<path d="M26.5735 34.5618L26.384 33.1534L24.3292 32.8178L23.7015 34.0926L22.4138 33.8823L25.3275 28.5479L26.7886 28.7865L27.8612 34.7721L26.5735 34.5618ZM26.2625 32.1045L26.068 30.727C26.0565 30.6354 26.0401 30.5179 26.0187 30.3746C26.0002 30.2291 25.9807 30.0821 25.9601 29.9336C25.9425 29.7829 25.9294 29.6528 25.9209 29.5433C25.878 29.6444 25.8206 29.7696 25.7488 29.9188C25.6799 30.0659 25.6135 30.2055 25.5497 30.3376C25.4859 30.4696 25.4402 30.5637 25.4126 30.6199L24.7937 31.8645L26.2625 32.1045ZM33.1928 35.643L32.0016 35.4484L32.399 33.0158L30.1668 32.6512L29.7695 35.0838L28.5744 34.8886L29.495 29.2524L30.6901 29.4476L30.3293 31.6566L32.5614 32.0212L32.9223 29.8122L34.1135 30.0068L33.1928 35.643ZM38.0696 36.4396L37.8801 35.0313L35.8253 34.6956L35.1975 35.9705L33.9099 35.7602L36.8236 30.4257L38.2847 30.6644L39.3572 36.65L38.0696 36.4396ZM37.7586 33.9824L37.564 32.6049C37.5526 32.5133 37.5362 32.3958 37.5147 32.2524C37.4963 32.1069 37.4768 31.9599 37.4562 31.8115C37.4385 31.6608 37.4255 31.5307 37.417 31.4211C37.3741 31.5223 37.3167 31.6475 37.2448 31.7967C37.1759 31.9438 37.1096 32.0834 37.0458 32.2154C36.982 32.3475 36.9363 32.4416 36.9087 32.4978L36.2898 33.7424L37.7586 33.9824ZM41.2703 35.0428L40.3296 34.8892L40.7482 31.0906L42.0821 31.3085L41.2703 35.0428ZM39.9022 36.173C39.9417 35.9314 40.0349 35.7725 40.1819 35.6962C40.3315 35.6204 40.5001 35.5978 40.6878 35.6285C40.8702 35.6583 41.019 35.7327 41.1342 35.8518C41.2519 35.9713 41.291 36.1518 41.2515 36.3934C41.2137 36.6247 41.1196 36.7809 40.9692 36.8618C40.8213 36.9432 40.6561 36.969 40.4736 36.9392C40.286 36.9086 40.1338 36.8309 40.0169 36.7063C39.9027 36.5821 39.8644 36.4043 39.9022 36.173Z" fill="black"/>
</svg>
