<svg width="64" height="64" viewBox="0 0 64 64" fill="none" xmlns="http://www.w3.org/2000/svg">
<path d="M35.3335 25.7223C37.2224 23.8334 39.1113 23.8334 41.0002 25.7223" stroke="black" stroke-width="0.944444"/>
<path d="M38.1806 26.3611C38.8326 26.3611 39.3611 25.8326 39.3611 25.1806C39.3611 24.5286 38.8326 24 38.1806 24C37.5286 24 37 24.5286 37 25.1806C37 25.8326 37.5286 26.3611 38.1806 26.3611Z" fill="black"/>
<path d="M23 21.9444C24.8889 20.6852 26.7778 20.6852 28.6667 21.9444" stroke="black" stroke-width="0.944444"/>
<path d="M35.3335 21.9444C37.2224 20.6852 39.1113 20.6852 41.0002 21.9444" stroke="black" stroke-width="0.944444"/>
<path d="M25.8471 26.3611C26.4991 26.3611 27.0276 25.8326 27.0276 25.1806C27.0276 24.5286 26.4991 24 25.8471 24C25.1951 24 24.6665 24.5286 24.6665 25.1806C24.6665 25.8326 25.1951 26.3611 25.8471 26.3611Z" fill="black"/>
<path d="M23 25.7223C24.8889 23.8334 26.7778 23.8334 28.6667 25.7223" stroke="black" stroke-width="0.944444"/>
<path d="M25 31C29.6667 35 34.3333 35 39 31" stroke="black" stroke-width="0.944444"/>
<path d="M27 50L32.3714 50L37 50" stroke="black" stroke-width="1.5" stroke-linecap="round" stroke-linejoin="round"/>
<path d="M34 53H30C29.4477 53 29 53.4477 29 54V55C29 55.5523 29.4477 56 30 56H34C34.5523 56 35 55.5523 35 55V54C35 53.4477 34.5523 53 34 53Z" stroke="black" stroke-width="1.5"/>
<path d="M36 46H28C27.4477 46 27 46.4477 27 47V52C27 52.5523 27.4477 53 28 53H36C36.5523 53 37 52.5523 37 52V47C37 46.4477 36.5523 46 36 46Z" stroke="black" stroke-width="1.5"/>
<path d="M32 8C23.1111 8 16 16.2609 16 26.1739C16 33.5914 23.1664 38.3447 24.6298 44.0222C24.9055 45.0918 25.7843 46 26.8889 46H37.1111C38.2157 46 39.0945 45.0918 39.3702 44.0222C40.8336 38.3447 48 33.5914 48 26.1739C48 16.2609 40.8889 8 32 8Z" stroke="black" stroke-width="2"/>
</svg>
