<svg width="64" height="64" viewBox="0 0 64 64" fill="none" xmlns="http://www.w3.org/2000/svg">
<path d="M42 28H22C20.8954 28 20 28.8954 20 30V50C20 51.1046 20.8954 52 22 52H42C43.1046 52 44 51.1046 44 50V30C44 28.8954 43.1046 28 42 28Z" stroke="black" stroke-width="2"/>
<path d="M24 28V20C24 17.8783 24.8429 15.8434 26.3431 14.3431C27.8434 12.8429 29.8783 12 32 12C34.1217 12 36.1566 12.8429 37.6569 14.3431C39.1571 15.8434 40 17.8783 40 20" stroke="black" stroke-width="2"/>
<path d="M39 40C39 42.7614 34.7614 45 32 45C29.2386 45 25 42.7614 25 40C25 37.2386 29.2386 35 32 35C34.7614 35 39 37.2386 39 40Z" stroke="black" stroke-width="2"/>
<path d="M34 40C35.1046 40 36 39.1046 36 38C36 36.8954 35.1046 36 34 36C32.8954 36 32 36.8954 32 38C32 39.1046 32.8954 40 34 40Z" fill="black" stroke="black" stroke-width="2" stroke-linecap="round" stroke-linejoin="round"/>
</svg>
