<svg width="64" height="64" viewBox="0 0 64 64" fill="none" xmlns="http://www.w3.org/2000/svg">
<path d="M32 9C23.1543 9 16 16.199 16 25.1C16 37.175 32 55 32 55C32 55 48 37.175 48 25.1C48 16.199 40.8457 9 32 9Z" stroke="black" stroke-width="1.7125" stroke-linecap="round" stroke-linejoin="round"/>
<path d="M31.5243 21.5C34.5753 21.5 41.5 27.6859 41.5 22.4999C41.5 17.3139 34.5753 20.305 31.5243 20.305C28.4734 20.305 22.5 17.814 22.5 23C22.5 28.186 28.4734 21.5 31.5243 21.5Z" stroke="black" stroke-width="2" stroke-linecap="round" stroke-linejoin="round"/>
<line y1="-0.5" x2="5.09902" y2="-0.5" transform="matrix(0.980581 -0.196116 -0.196116 -0.980581 42 21)" stroke="black"/>
<line x1="21.9019" y1="21.4903" x2="16.9019" y2="20.4903" stroke="black"/>
<path d="M47.5 30.5C47.5 30.5 48.5878 31.6217 48.91 32.4237C49.0359 32.737 49.2039 33.087 49.3189 33.4836C49.4256 33.8516 49.5871 34.1859 49.6894 34.5564C49.7836 34.8974 49.8676 35.36 50.0596 36.0114C50.2776 36.7513 50.4807 37.5318 50.8251 38.5005C51.2067 39.5734 51.8846 40.6723 52.2808 41.2103C52.8014 41.9172 53.2641 42.0288 53.6607 42.2844C53.9504 42.4711 54.2864 42.5652 54.6569 42.7062C55.0151 42.8425 55.3593 42.9745 56.059 43.0641C56.4248 43.111 57.0345 43.0771 57.3093 43.1024C57.584 43.1277 57.5081 43.1783 57.4311 43.2297C57.1353 43.4268 56.7678 43.6121 56.3716 43.8297C55.6784 44.2105 55.3623 44.4811 54.9416 44.8252C54.0762 45.533 53.6764 45.7839 53.2932 46.0648C52.9037 46.3503 52.4763 46.4736 51.075 46.8564C50.2242 47.0888 49.5396 47.0361 48.582 47.0495C48.1486 47.0556 47.8015 46.8583 47.4432 46.756C47.0136 46.6333 46.5508 46.4001 46.1021 46.156C45.7824 45.982 45.0457 45.9893 44.4928 46.1418C44.1059 46.2485 43.7904 46.5503 43.4835 46.6786C43.3348 46.7408 43.0501 46.7556 42.693 46.7304C42.1792 46.694 41.8745 46.1947 41.5676 46.0663C41.4147 46.0153 41.2607 45.964 41.0193 45.9257C40.8537 45.9127 39.9138 45.5766 39.5 45.5" stroke="black" stroke-width="2"/>
<path d="M17.0027 31C17.0027 31 15.9149 32.1217 15.5927 32.9237C15.4668 33.237 15.2988 33.587 15.1838 33.9836C15.0771 34.3516 14.9156 34.6859 14.8133 35.0564C14.7191 35.3974 14.6351 35.86 14.4431 36.5114C14.2251 37.2513 14.022 38.0318 13.6775 39.0005C13.296 40.0734 12.6181 41.1723 12.2219 41.7103C11.7012 42.4172 11.2386 42.5288 10.842 42.7844C10.5523 42.9711 10.2163 43.0652 9.84577 43.2062C9.48763 43.3425 9.14341 43.4745 8.44373 43.5641C8.07788 43.611 7.46816 43.5771 7.19343 43.6024C6.91869 43.6277 6.99456 43.6783 7.07158 43.7297C7.36735 43.9268 7.73485 44.1121 8.13106 44.3297C8.82431 44.7105 9.14035 44.9811 9.56107 45.3252C10.4265 46.033 10.8263 46.2839 11.2095 46.5648C11.599 46.8503 12.0264 46.9736 13.4277 47.3564C14.2785 47.5888 14.9631 47.5361 15.9207 47.5495C16.3541 47.5556 16.7012 47.3583 17.0595 47.256C17.4891 47.1333 17.9519 46.9001 18.4006 46.656C18.7203 46.482 19.457 46.4893 20.0099 46.6418C20.3968 46.7485 20.7123 47.0503 21.0192 47.1786C21.1679 47.2408 21.4526 47.2556 21.8097 47.2304C22.3235 47.194 22.6282 46.6947 22.9351 46.5663C23.088 46.5153 23.242 46.464 23.4834 46.4257C23.6489 46.4127 24.5889 46.0766 25.0027 46" stroke="black" stroke-width="2"/>
<line x1="46.2481" y1="31.4341" x2="32.2481" y2="39.4341" stroke="black"/>
<line x1="31.7519" y1="39.4341" x2="17.7519" y2="31.4341" stroke="black"/>
<path d="M34.0167 40.5C34.0167 41.452 33.1213 39.6381 32.0167 39.6381C30.9121 39.6381 30.0167 41.452 30.0167 40.5C30.0167 39.548 30.9121 38.7763 32.0167 38.7763C33.1213 38.7763 34.0167 39.548 34.0167 40.5Z" fill="black"/>
<ellipse cx="32" cy="39.5" rx="1" ry="0.5" fill="black"/>
</svg>
