<svg width="64" height="64" viewBox="0 0 64 64" fill="none" xmlns="http://www.w3.org/2000/svg">
<path d="M50 12H14C12.8954 12 12 12.8954 12 14V34C12 35.1046 12.8954 36 14 36H50C51.1046 36 52 35.1046 52 34V14C52 12.8954 51.1046 12 50 12Z" stroke="black" stroke-width="2"/>
<path d="M32 36V52" stroke="black" stroke-width="2"/>
<path d="M32 52L24 60" stroke="black" stroke-width="2"/>
<path d="M32 52L40 60" stroke="black" stroke-width="2"/>
<path d="M17.6797 27H16.75V21.2891H19.9766V22.0781H17.6797V23.8594H19.8281V24.6445H17.6797V27ZM24.5547 27L23.9961 25.4141H21.8125L21.2539 27H20.2656L22.3906 21.2656H23.4297L25.5508 27H24.5547ZM23.7539 24.6094L23.2109 23.0469C23.1901 22.9792 23.1602 22.8841 23.1211 22.7617C23.082 22.6367 23.043 22.5104 23.0039 22.3828C22.9648 22.2526 22.9323 22.1432 22.9062 22.0547C22.8802 22.1615 22.8477 22.2812 22.8086 22.4141C22.7721 22.5443 22.7357 22.6667 22.6992 22.7812C22.6654 22.8958 22.6393 22.9844 22.6211 23.0469L22.0742 24.6094H23.7539ZM26.3047 27V21.2891H27.2422V27H26.3047ZM28.75 27V21.2891H29.6875V26.2031H32.1133V27H28.75ZM37.5859 21.2891V24.9844C37.5859 25.3828 37.5013 25.7396 37.332 26.0547C37.1654 26.3698 36.9128 26.6198 36.5742 26.8047C36.2357 26.987 35.8099 27.0781 35.2969 27.0781C34.5651 27.0781 34.0078 26.8867 33.625 26.5039C33.2448 26.1185 33.0547 25.6068 33.0547 24.9688V21.2891H33.9922V24.8867C33.9922 25.3633 34.1042 25.7148 34.3281 25.9414C34.5521 26.168 34.8867 26.2812 35.332 26.2812C35.6393 26.2812 35.8893 26.2279 36.082 26.1211C36.2773 26.0117 36.4206 25.8529 36.5117 25.6445C36.6055 25.4336 36.6523 25.1797 36.6523 24.8828V21.2891H37.5859ZM40.6523 21.2891C41.1445 21.2891 41.5508 21.349 41.8711 21.4688C42.194 21.5885 42.4336 21.7708 42.5898 22.0156C42.7487 22.2604 42.8281 22.5716 42.8281 22.9492C42.8281 23.2305 42.776 23.4701 42.6719 23.668C42.5677 23.8659 42.431 24.0299 42.2617 24.1602C42.0924 24.2904 41.9115 24.3945 41.7188 24.4727L43.3398 27H42.2812L40.9023 24.7109H39.9844V27H39.0469V21.2891H40.6523ZM40.5898 22.0703H39.9844V23.9375H40.6328C41.0677 23.9375 41.3828 23.8568 41.5781 23.6953C41.776 23.5339 41.875 23.2956 41.875 22.9805C41.875 22.6497 41.7695 22.4154 41.5586 22.2773C41.3503 22.1393 41.0273 22.0703 40.5898 22.0703ZM47.3906 27H44.1562V21.2891H47.3906V22.0781H45.0938V23.6289H47.2461V24.4141H45.0938V26.207H47.3906V27Z" fill="black"/>
</svg>
