<svg width="64" height="64" viewBox="0 0 64 64" fill="none" xmlns="http://www.w3.org/2000/svg">
<path d="M46 21.4V48.6C46 50.4778 44.433 52 42.5 52H21.5C19.567 52 18 50.4778 18 48.6V21.4" stroke="black" stroke-width="2" stroke-linejoin="round"/>
<line x1="26" y1="25" x2="26" y2="47" stroke="black" stroke-width="2" stroke-linecap="round"/>
<line x1="32" y1="25" x2="32" y2="47" stroke="black" stroke-width="2" stroke-linecap="round"/>
<line x1="38" y1="25" x2="38" y2="47" stroke="black" stroke-width="2" stroke-linecap="round"/>
<path d="M21 6.20923L49.4213 15.8127" stroke="black" stroke-width="3" stroke-linecap="round"/>
<path d="M39.4574 7.81471L38.1769 11.6042L32.4927 9.68352L33.7731 5.894L39.4574 7.81471Z" stroke="black" stroke-width="2"/>
<path d="M24.234 16.8808C24.0973 16.9843 23.4779 17.1894 22.9756 17.6042C22.7208 17.8146 22.4401 17.9507 22.1646 18.0195C22.0258 18.0542 21.8891 18.0884 21.7503 17.9522C21.3775 17.5863 21.2314 17.1573 20.9564 17.1055C20.5515 17.0292 20.1957 17.0537 19.989 16.9678C19.5256 16.7749 19.4696 16.2262 19.35 16.019C19.1671 15.7023 18.6421 15.8461 18.4525 15.6052C17.8091 14.7877 18.0196 13.1904 18.0879 12.5866C18.1147 12.3502 18.293 12.2904 18.4318 12.2893C18.7154 12.2872 18.9165 12.5296 19.1226 12.6679C19.6745 13.0381 20.2609 12.3587 20.7109 12.1345C21.1363 11.9225 21.7109 11.9776 22.366 12.1847C23.1504 12.4327 23.8528 12.3225 24.0942 12.5291C24.5094 12.8846 24.7498 13.3924 25.2506 13.6689C25.3732 13.7367 25.4748 13.8067 25.5447 13.8932C25.8448 14.2644 25.4437 14.9791 25.2361 15.4292C24.9248 15.844 24.7529 16.1547 24.5463 16.3442C24.4422 16.4312 24.3396 16.4996 24.1304 16.57" stroke="black" stroke-width="2" stroke-linecap="round"/>
<path d="M14.4508 18.7644C14.4508 19.419 14.3824 19.97 14.2442 20.6779C14.1486 21.1671 13.7962 21.5588 13.4508 21.9736C13.154 22.3301 13.036 22.8701 12.5373 23.389C12.2166 23.7227 11.588 23.6324 11.1225 23.6153C10.5967 23.596 10.2064 23.0482 9.87752 22.6324C9.5293 22.192 8.58441 22.3211 7.6015 21.7017C6.92726 21.2769 6.82159 20.5977 6.70041 20.0611C6.54321 19.3652 7.33531 18.8017 7.92361 18.2828C8.16757 18.0676 8.44251 17.9369 8.61496 17.696C8.8049 17.4308 8.75427 17.0741 8.83972 16.8328C9.24329 15.693 11.7558 16.7261 12.2566 16.8996C12.7164 17.0589 13.2059 17.3123 13.6207 17.5723C13.7248 17.6582 13.8273 17.795 13.9143 17.9167C14.0013 18.0384 14.0697 18.1409 14.3472 18.4537" stroke="black" stroke-width="2" stroke-linecap="round"/>
<line x1="17" y1="21" x2="47" y2="21" stroke="black" stroke-width="2"/>
</svg>
