<svg width="64" height="64" viewBox="0 0 64 64" fill="none" xmlns="http://www.w3.org/2000/svg">
<path d="M46 21.4V48.6C46 50.4778 44.433 52 42.5 52H21.5C19.567 52 18 50.4778 18 48.6V21.4" stroke="black" stroke-width="2" stroke-linejoin="round"/>
<line x1="26" y1="25" x2="26" y2="47" stroke="black" stroke-width="2" stroke-linecap="round"/>
<line x1="32" y1="25" x2="32" y2="47" stroke="black" stroke-width="2" stroke-linecap="round"/>
<line x1="38" y1="25" x2="38" y2="47" stroke="black" stroke-width="2" stroke-linecap="round"/>
<path d="M17 20.3876L47 20.3876" stroke="black" stroke-width="3" stroke-linecap="round"/>
<path d="M35 16L35 20L29 20L29 16L35 16Z" stroke="black" stroke-width="2"/>
<line x1="17" y1="21" x2="47" y2="21" stroke="black" stroke-width="2"/>
<path d="M51.5547 26.6675C50.34 28.2351 47.6623 31.5768 46.5521 33.5C46.052 34.5 45.0522 34.5428 48.2343 35.4269C49.2727 35.7154 49.2867 37.73 50.132 38.147C50.5975 38.3767 51.115 38.5248 51.3747 38.0958C51.6536 37.6351 51.3392 32.7315 51.5547 33C51.7413 33.2324 52.0611 37.8419 52.6193 38.7959C53.0232 39.4863 53.5194 40.0386 53.9879 40.0356C54.2062 40.0342 54.4129 39.9772 54.5468 39.7561C54.8257 39.2954 54.5495 32.1911 55 33C55.1549 33.2781 55.7102 38.5066 56.1011 39.579C56.5051 40.6873 56.7956 42.2293 57.5948 43.3603C58.2479 44.2846 58.8088 45.2896 58.9933 44.9224C59.179 44.553 59.5527 44.0364 59.5522 43.0684C59.5503 39.9346 58.7322 37.0621 58.5 35C58.3874 34 58.5 31.6038 58.5 27C58.5 22.5 58.0999 22.0493 56.9352 22.0021C55.8781 21.9592 55.0487 22.5912 54.1997 23.4825C53.4524 24.267 52.5719 25.3549 51.5547 26.6675Z" stroke="black" stroke-width="1.4" stroke-linecap="round"/>
<path d="M11.9975 26.6675C13.2122 28.2351 15.8899 31.5768 17.0002 33.5C17.5002 34.5 18.5001 34.5428 15.3179 35.4269C14.2796 35.7154 14.2656 37.73 13.4203 38.147C12.9547 38.3767 12.4373 38.5248 12.1776 38.0958C11.8986 37.6351 12.2131 32.7315 11.9975 33C11.8109 33.2324 11.4912 37.8419 10.933 38.7959C10.529 39.4863 10.0329 40.0386 9.56432 40.0356C9.346 40.0342 9.13932 39.9772 9.00547 39.7561C8.72651 39.2954 9.00274 32.1911 8.55225 33C8.39737 33.2781 7.84204 38.5066 7.45114 39.579C7.04717 40.6873 6.75663 42.2293 5.95746 43.3603C5.30438 44.2846 4.74349 45.2896 4.55894 44.9224C4.37327 44.553 3.99951 44.0364 4.00009 43.0684C4.00195 39.9346 4.82005 37.0621 5.05225 35C5.16484 34 5.05225 31.6038 5.05225 27C5.05225 22.5 5.45231 22.0493 6.61707 22.0021C7.67412 21.9592 8.50351 22.5912 9.35253 23.4825C10.0998 24.267 10.9804 25.3549 11.9975 26.6675Z" stroke="black" stroke-width="1.4" stroke-linecap="round"/>
</svg>
