<svg width="64" height="64" viewBox="0 0 64 64" fill="none" xmlns="http://www.w3.org/2000/svg">
<path d="M33.8303 52.92C42.083 52.198 47.9537 42.2465 46.9429 30.6926C45.9321 19.1388 38.4225 10.3578 30.1697 11.0799C21.917 11.8019 16.0462 21.7535 17.0571 33.3073C18.0679 44.8611 25.5775 53.6421 33.8303 52.92Z" stroke="black" stroke-width="2"/>
<path d="M17.0571 33.3073L46.943 30.6926L17.0571 33.3073Z" fill="black"/>
<path d="M17.0571 33.3073L46.943 30.6926" stroke="black" stroke-width="2"/>
<path d="M30.1697 11.0798L33.8302 52.92L30.1697 11.0798Z" fill="black"/>
<path d="M30.1697 11.0798L33.8302 52.92" stroke="black" stroke-width="2"/>
<path d="M17.8738 24.2015C26.9427 25.4158 35.8373 24.6376 44.5576 21.867" stroke="black" stroke-width="2"/>
<path d="M19.4424 42.133C28.0756 38.3663 36.9702 37.5881 46.1262 39.7985" stroke="black" stroke-width="2"/>
<path d="M33.83 52.92C37.3669 52.6106 39.4147 42.9935 38.4039 31.4397C37.393 19.8858 33.7064 10.7704 30.1695 11.0798C26.6326 11.3893 24.5848 21.0064 25.5957 32.5602C26.6065 44.1141 30.2931 53.2295 33.83 52.92Z" stroke="black" stroke-width="2"/>
</svg>
