<svg width="64" height="64" viewBox="0 0 64 64" fill="none" xmlns="http://www.w3.org/2000/svg">
<path d="M32 53C43.598 53 53 43.598 53 32C53 20.402 43.598 11 32 11C20.402 11 11 20.402 11 32C11 43.598 20.402 53 32 53Z" stroke="black" stroke-width="2"/>
<path d="M11.0798 33.8303L52.92 30.1698L11.0798 33.8303Z" fill="black"/>
<path d="M11.0798 33.8303L52.92 30.1698" stroke="black" stroke-width="2"/>
<path d="M32 11V53V11Z" fill="black"/>
<path d="M32 11V53" stroke="black" stroke-width="2"/>
<path d="M13.25 23C25.75 25 38.25 25 50.75 23" stroke="black" stroke-width="2"/>
<path d="M13.25 41C25.75 38 38.25 38 50.75 41" stroke="black" stroke-width="2"/>
<path d="M30.1697 52.9201C35.1214 53.3533 39.9549 44.3383 40.9657 32.7844C41.9766 21.2306 38.7819 11.5131 33.8303 11.0799C28.8786 10.6467 24.0451 19.6618 23.0342 31.2156C22.0234 42.7695 25.2181 52.4869 30.1697 52.9201Z" stroke="black" stroke-width="2"/>
<path d="M25.937 55.574L24.326 62H22.544L21.797 58.895C21.779 58.829 21.758 58.733 21.734 58.607C21.71 58.475 21.68 58.331 21.644 58.175C21.614 58.013 21.587 57.86 21.563 57.716C21.539 57.566 21.521 57.446 21.509 57.356C21.497 57.446 21.476 57.566 21.446 57.716C21.422 57.86 21.395 58.013 21.365 58.175C21.335 58.331 21.305 58.475 21.275 58.607C21.251 58.733 21.23 58.829 21.212 58.895L20.456 62H18.683L17.063 55.574H18.557L19.322 58.949C19.346 59.039 19.373 59.159 19.403 59.309C19.433 59.453 19.463 59.609 19.493 59.777C19.523 59.939 19.55 60.098 19.574 60.254C19.604 60.404 19.625 60.533 19.637 60.641C19.655 60.497 19.679 60.332 19.709 60.146C19.745 59.96 19.781 59.771 19.817 59.579C19.853 59.387 19.889 59.207 19.925 59.039C19.961 58.871 19.994 58.736 20.024 58.634L20.789 55.574H22.22L22.985 58.634C23.003 58.736 23.03 58.871 23.066 59.039C23.108 59.207 23.147 59.39 23.183 59.588C23.225 59.78 23.261 59.969 23.291 60.155C23.321 60.341 23.345 60.503 23.363 60.641C23.381 60.491 23.408 60.311 23.444 60.101C23.486 59.885 23.528 59.672 23.57 59.462C23.612 59.246 23.648 59.078 23.678 58.958L24.443 55.574H25.937Z" fill="black"/>
<path d="M48.5613 56.8106L45.3338 62.5961L43.6132 62.1325L43.6998 58.9401C43.6996 58.8717 43.7043 58.7735 43.7139 58.6456C43.7251 58.5119 43.7336 58.3651 43.7394 58.2051C43.7526 58.0408 43.7663 57.8861 43.7806 57.7408C43.7965 57.5897 43.8103 57.4692 43.8221 57.3792C43.7871 57.4629 43.7356 57.5733 43.6676 57.7104C43.607 57.8432 43.5411 57.9839 43.47 58.1325C43.4005 58.2753 43.334 58.4065 43.2707 58.5262C43.2148 58.6416 43.1695 58.7288 43.1349 58.7879L41.5971 61.5892L39.8852 61.1279L39.9929 54.5017L41.4355 54.8905L41.296 58.3483C41.2957 58.4414 41.2906 58.5643 41.2805 58.7169C41.272 58.8638 41.2604 59.0222 41.2457 59.1922C41.2325 59.3565 41.2172 59.517 41.1998 59.6739C41.1897 59.8265 41.1764 59.9565 41.1599 60.0639C41.2148 59.9296 41.2809 59.7765 41.3582 59.6047C41.4414 59.4345 41.5253 59.2614 41.61 59.0854C41.6947 58.9093 41.7763 58.7449 41.8548 58.5921C41.9333 58.4392 42.0003 58.3174 42.0558 58.2268L43.5906 55.4712L44.9723 55.8435L44.9148 58.9972C44.9056 59.1003 44.8966 59.2377 44.8876 59.4093C44.8845 59.5824 44.8745 59.7693 44.8578 59.9698C44.8483 60.1661 44.8339 60.358 44.8145 60.5454C44.7951 60.7328 44.7761 60.8955 44.7576 61.0334C44.814 60.8932 44.8869 60.7265 44.9763 60.5331C45.073 60.3354 45.169 60.1407 45.2642 59.9489C45.361 59.7512 45.4394 59.5984 45.4996 59.4903L47.1187 56.4219L48.5613 56.8106Z" fill="black"/>
<path d="M36.937 55.574L35.326 62H33.544L32.797 58.895C32.779 58.829 32.758 58.733 32.734 58.607C32.71 58.475 32.68 58.331 32.644 58.175C32.614 58.013 32.587 57.86 32.563 57.716C32.539 57.566 32.521 57.446 32.509 57.356C32.497 57.446 32.476 57.566 32.446 57.716C32.422 57.86 32.395 58.013 32.365 58.175C32.335 58.331 32.305 58.475 32.275 58.607C32.251 58.733 32.23 58.829 32.212 58.895L31.456 62H29.683L28.063 55.574H29.557L30.322 58.949C30.346 59.039 30.373 59.159 30.403 59.309C30.433 59.453 30.463 59.609 30.493 59.777C30.523 59.939 30.55 60.098 30.574 60.254C30.604 60.404 30.625 60.533 30.637 60.641C30.655 60.497 30.679 60.332 30.709 60.146C30.745 59.96 30.781 59.771 30.817 59.579C30.853 59.387 30.889 59.207 30.925 59.039C30.961 58.871 30.994 58.736 31.024 58.634L31.789 55.574H33.22L33.985 58.634C34.003 58.736 34.03 58.871 34.066 59.039C34.108 59.207 34.147 59.39 34.183 59.588C34.225 59.78 34.261 59.969 34.291 60.155C34.321 60.341 34.345 60.503 34.363 60.641C34.381 60.491 34.408 60.311 34.444 60.101C34.486 59.885 34.528 59.672 34.57 59.462C34.612 59.246 34.648 59.078 34.678 58.958L35.443 55.574H36.937Z" fill="black"/>
</svg>
