<svg width="64" height="64" viewBox="0 0 64 64" fill="none" xmlns="http://www.w3.org/2000/svg">
<path d="M32 32C38.6274 32 44 26.6274 44 20C44 13.3726 38.6274 8 32 8C25.3726 8 20 13.3726 20 20C20 26.6274 25.3726 32 32 32Z" stroke="black" stroke-width="2" stroke-linecap="round" stroke-linejoin="round"/>
<path d="M16 42.2C16 32.6 48 32.6 48 42.2V55H16V42.2Z" stroke="black" stroke-width="2" stroke-linecap="round" stroke-linejoin="round"/>
<path d="M26 20C27.1046 20 28 19.1046 28 18C28 16.8954 27.1046 16 26 16C24.8954 16 24 16.8954 24 18C24 19.1046 24.8954 20 26 20Z" fill="black" stroke="black" stroke-width="2" stroke-linecap="round" stroke-linejoin="round"/>
<path d="M38 20C39.1046 20 40 19.1046 40 18C40 16.8954 39.1046 16 38 16C36.8954 16 36 16.8954 36 18C36 19.1046 36.8954 20 38 20Z" fill="black" stroke="black" stroke-width="2" stroke-linecap="round" stroke-linejoin="round"/>
<path d="M20 14C24 12 26 14 28 14" stroke="black" stroke-width="2" stroke-linecap="round" stroke-linejoin="round"/>
<path d="M34 14H42" stroke="black" stroke-width="1.5" stroke-linecap="round" stroke-linejoin="round"/>
</svg>
