<svg width="64" height="64" viewBox="0 0 64 64" fill="none" xmlns="http://www.w3.org/2000/svg">
<path d="M44 12H20C17.7909 12 16 13.7909 16 16V48C16 50.2091 17.7909 52 20 52H44C46.2091 52 48 50.2091 48 48V16C48 13.7909 46.2091 12 44 12Z" stroke="black" stroke-width="2" stroke-linejoin="round"/>
<path d="M30 20H22V28H30V20Z" stroke="black" stroke-width="2" stroke-linejoin="round"/>
<path d="M42 20H34V28H42V20Z" stroke="black" stroke-width="2" stroke-linejoin="round"/>
<path d="M30 32H22V40H30V32Z" stroke="black" stroke-width="2" stroke-linejoin="round"/>
<path d="M42.899 33.1716L35.1716 31.101L33.1011 38.8284L40.8285 40.899L42.899 33.1716Z" stroke="black" stroke-width="2" stroke-linejoin="round"/>
</svg>
