<svg width="64" height="64" viewBox="0 0 64 64" fill="none" xmlns="http://www.w3.org/2000/svg">
<path d="M52 14H12C10.8954 14 10 14.8954 10 16V52C10 53.1046 10.8954 54 12 54H52C53.1046 54 54 53.1046 54 52V16C54 14.8954 53.1046 14 52 14Z" stroke="black" stroke-width="2" stroke-linejoin="round"/>
<path d="M10 26H54" stroke="black" stroke-width="2" stroke-linejoin="round"/>
<path d="M29.1779 33.2837L25.7897 45.9285L24.2585 45.5183L27.2166 34.4787L27.1425 34.4589L23.5061 35.6815L23.923 34.1256L27.6467 32.8734L29.1779 33.2837ZM33.5044 48.181C32.5742 47.9317 31.8497 47.4663 31.3308 46.7846C30.8131 46.0989 30.511 45.226 30.4244 44.1661C30.339 43.102 30.4804 41.8826 30.8488 40.5078C31.215 39.1412 31.7005 38.0206 32.3055 37.1459C32.9156 36.2683 33.6163 35.6619 34.4076 35.3269C35.204 34.9888 36.0632 34.9433 36.9853 35.1904C37.9073 35.4374 38.6266 35.9059 39.1432 36.5958C39.665 37.2827 39.9687 38.1581 40.0541 39.2222C40.1448 40.2832 40.0071 41.497 39.6409 42.8636C39.2725 44.2384 38.7853 45.3652 38.1793 46.244C37.5743 47.1186 36.8762 47.7235 36.085 48.0585C35.2949 48.3894 34.4347 48.4302 33.5044 48.181ZM33.8684 46.8227C34.7904 47.0697 35.6258 46.8171 36.3744 46.0647C37.123 45.3124 37.7179 44.113 38.1591 42.4666C38.4525 41.3717 38.585 40.4079 38.5566 39.5753C38.5323 38.7438 38.3561 38.0679 38.0279 37.5477C37.7038 37.0285 37.2371 36.6873 36.6279 36.524C35.7141 36.2792 34.8792 36.5385 34.1231 37.3021C33.3682 38.0616 32.7707 39.2625 32.3306 40.9048C32.0372 41.9997 31.9032 42.9608 31.9286 43.7882C31.9539 44.6156 32.1292 45.2868 32.4544 45.8019C32.7838 46.3181 33.2551 46.6583 33.8684 46.8227Z" fill="black"/>
<path d="M29.1779 33.2837L29.6609 33.4131C29.7324 33.1464 29.5741 32.8722 29.3073 32.8007L29.1779 33.2837ZM25.7897 45.9285L25.6603 46.4115C25.9271 46.483 26.2012 46.3247 26.2727 46.058L25.7897 45.9285ZM24.2585 45.5183L23.7756 45.3889C23.7041 45.6556 23.8624 45.9298 24.1291 46.0012L24.2585 45.5183ZM27.2166 34.4787L27.6995 34.6081C27.771 34.3414 27.6127 34.0672 27.346 33.9958L27.2166 34.4787ZM27.1425 34.4589L27.2719 33.9759C27.1768 33.9504 27.0764 33.9536 26.9831 33.9849L27.1425 34.4589ZM23.5061 35.6815L23.0231 35.5521C22.9755 35.7301 23.0295 35.9198 23.1638 36.046C23.2981 36.1721 23.4908 36.2142 23.6654 36.1555L23.5061 35.6815ZM23.923 34.1256L23.7636 33.6517C23.6049 33.7051 23.4834 33.8344 23.44 33.9962L23.923 34.1256ZM27.6467 32.8734L27.7761 32.3905C27.6811 32.365 27.5806 32.3681 27.4873 32.3995L27.6467 32.8734ZM29.1779 33.2837L28.695 33.1543L25.3068 45.7991L25.7897 45.9285L26.2727 46.058L29.6609 33.4131L29.1779 33.2837ZM25.7897 45.9285L25.9192 45.4456L24.3879 45.0353L24.2585 45.5183L24.1291 46.0012L25.6603 46.4115L25.7897 45.9285ZM24.2585 45.5183L24.7415 45.6477L27.6995 34.6081L27.2166 34.4787L26.7336 34.3493L23.7756 45.3889L24.2585 45.5183ZM27.2166 34.4787L27.346 33.9958L27.2719 33.9759L27.1425 34.4589L27.0131 34.9418L27.0872 34.9617L27.2166 34.4787ZM27.1425 34.4589L26.9831 33.9849L23.3468 35.2076L23.5061 35.6815L23.6654 36.1555L27.3018 34.9328L27.1425 34.4589ZM23.5061 35.6815L23.9891 35.8109L24.406 34.255L23.923 34.1256L23.44 33.9962L23.0231 35.5521L23.5061 35.6815ZM23.923 34.1256L24.0824 34.5995L27.8061 33.3473L27.6467 32.8734L27.4873 32.3995L23.7636 33.6517L23.923 34.1256ZM27.6467 32.8734L27.5173 33.3564L29.0485 33.7667L29.1779 33.2837L29.3073 32.8007L27.7761 32.3905L27.6467 32.8734ZM31.3308 46.7846L30.9318 47.0859L30.933 47.0874L31.3308 46.7846ZM30.4244 44.1661L29.926 44.2061L29.9261 44.2068L30.4244 44.1661ZM32.3055 37.1459L31.8949 36.8605L31.8942 36.8615L32.3055 37.1459ZM34.4076 35.3269L34.6025 35.7873L34.6029 35.7871L34.4076 35.3269ZM39.1432 36.5958L38.743 36.8955L38.7451 36.8983L39.1432 36.5958ZM40.0541 39.2222L39.5557 39.2622L39.556 39.2648L40.0541 39.2222ZM38.1793 46.244L38.5905 46.5284L38.5909 46.5278L38.1793 46.244ZM36.085 48.0585L36.2782 48.5197L36.28 48.5189L36.085 48.0585ZM36.3744 46.0647L36.02 45.7121L36.02 45.7121L36.3744 46.0647ZM38.5566 39.5753L38.0568 39.5899L38.0569 39.5924L38.5566 39.5753ZM38.0279 37.5477L37.6037 37.8124L37.605 37.8144L38.0279 37.5477ZM34.1231 37.3021L34.4777 37.6546L34.4784 37.6539L34.1231 37.3021ZM31.9286 43.7882L31.4288 43.8035L31.4288 43.8035L31.9286 43.7882ZM32.4544 45.8019L32.0317 46.0688L32.0329 46.0708L32.4544 45.8019ZM33.5044 48.181L33.6339 47.698C32.7966 47.4737 32.1722 47.0645 31.7287 46.4818L31.3308 46.7846L30.933 47.0874C31.5271 47.8681 32.3518 48.3898 33.375 48.664L33.5044 48.181ZM31.3308 46.7846L31.7299 46.4834C31.2815 45.8894 31.0035 45.1132 30.9228 44.1253L30.4244 44.1661L29.9261 44.2068C30.0185 45.3387 30.3447 46.3083 30.9318 47.0859L31.3308 46.7846ZM30.4244 44.1661L30.9228 44.126C30.8432 43.1343 30.9735 41.9741 31.3318 40.6372L30.8488 40.5078L30.3658 40.3784C29.9873 41.7911 29.8348 43.0696 29.926 44.2061L30.4244 44.1661ZM30.8488 40.5078L31.3318 40.6372C31.6877 39.3088 32.1532 38.2451 32.7167 37.4304L32.3055 37.1459L31.8942 36.8615C31.2479 37.796 30.7422 38.9736 30.3658 40.3784L30.8488 40.5078ZM32.3055 37.1459L32.716 37.4313C33.2854 36.6123 33.9172 36.0775 34.6025 35.7873L34.4076 35.3269L34.2126 34.8665C33.3154 35.2463 32.5459 35.9242 31.8949 36.8605L32.3055 37.1459ZM34.4076 35.3269L34.6029 35.7871C35.286 35.4972 36.0298 35.452 36.8559 35.6733L36.9853 35.1904L37.1147 34.7074C36.0967 34.4347 35.122 34.4804 34.2122 34.8666L34.4076 35.3269ZM36.9853 35.1904L36.8559 35.6733C37.6819 35.8947 38.3008 36.305 38.743 36.8955L39.1432 36.5958L39.5434 36.2961C38.9524 35.5068 38.1326 34.9802 37.1147 34.7074L36.9853 35.1904ZM39.1432 36.5958L38.7451 36.8983C39.1967 37.4928 39.4761 38.2708 39.5557 39.2622L40.0541 39.2222L40.5525 39.1822C40.4612 38.0455 40.1333 37.0726 39.5413 36.2933L39.1432 36.5958ZM40.0541 39.2222L39.556 39.2648C39.6404 40.2525 39.5137 41.4063 39.158 42.7342L39.6409 42.8636L40.1239 42.993C40.5004 41.5877 40.6493 40.3139 40.5523 39.1796L40.0541 39.2222ZM39.6409 42.8636L39.158 42.7342C38.7997 44.0711 38.3325 45.1411 37.7677 45.9601L38.1793 46.244L38.5909 46.5278C39.2382 45.5893 39.7453 44.4057 40.1239 42.993L39.6409 42.8636ZM38.1793 46.244L37.7681 45.9595C37.2042 46.7747 36.5753 47.3079 35.8901 47.5981L36.085 48.0585L36.28 48.5189C37.1772 48.139 37.9444 47.4625 38.5905 46.5284L38.1793 46.244ZM36.085 48.0585L35.8919 47.5973C35.2165 47.8802 34.4711 47.9224 33.6339 47.698L33.5044 48.181L33.375 48.664C34.3983 48.9381 35.3733 48.8987 36.2782 48.5197L36.085 48.0585ZM33.8684 46.8227L33.739 47.3056C34.8562 47.605 35.871 47.2795 36.7288 46.4174L36.3744 46.0647L36.02 45.7121C35.3805 46.3546 34.7247 46.5344 33.9978 46.3397L33.8684 46.8227ZM36.3744 46.0647L36.7288 46.4174C37.5657 45.5764 38.1906 44.2808 38.6421 42.596L38.1591 42.4666L37.6761 42.3371C37.2452 43.9453 36.6804 45.0484 36.02 45.7121L36.3744 46.0647ZM38.1591 42.4666L38.6421 42.596C38.9439 41.4693 39.0868 40.4544 39.0563 39.5583L38.5566 39.5753L38.0569 39.5924C38.0831 40.3614 37.961 41.274 37.6761 42.3371L38.1591 42.4666ZM38.5566 39.5753L39.0564 39.5607C39.0304 38.6702 38.8407 37.899 38.4508 37.2809L38.0279 37.5477L37.605 37.8144C37.8715 38.2369 38.0343 38.8175 38.0568 39.5899L38.5566 39.5753ZM38.0279 37.5477L38.452 37.2829C38.0586 36.6527 37.4847 36.236 36.7573 36.0411L36.6279 36.524L36.4985 37.007C36.9895 37.1385 37.3489 37.4042 37.6037 37.8124L38.0279 37.5477ZM36.6279 36.524L36.7573 36.0411C35.6435 35.7426 34.6296 36.08 33.7678 36.9503L34.1231 37.3021L34.4784 37.6539C35.1289 36.997 35.7847 36.8157 36.4985 37.007L36.6279 36.524ZM34.1231 37.3021L33.7685 36.9496C32.926 37.7971 32.2983 39.0936 31.8476 40.7754L32.3306 40.9048L32.8136 41.0342C33.2431 39.4314 33.8104 38.326 34.4777 37.6546L34.1231 37.3021ZM32.3306 40.9048L31.8476 40.7754C31.5459 41.9014 31.4015 42.9131 31.4288 43.8035L31.9286 43.7882L32.4284 43.7729C32.4049 43.0086 32.5285 42.0981 32.8136 41.0342L32.3306 40.9048ZM31.9286 43.7882L31.4288 43.8035C31.456 44.6893 31.6447 45.4559 32.0317 46.0688L32.4544 45.8019L32.8772 45.5349C32.6138 45.1177 32.4519 44.5418 32.4284 43.7729L31.9286 43.7882ZM32.4544 45.8019L32.0329 46.0708C32.4322 46.6965 33.0099 47.1103 33.739 47.3056L33.8684 46.8227L33.9978 46.3397C33.5003 46.2064 33.1354 45.9396 32.876 45.533L32.4544 45.8019Z" fill="black"/>
<path d="M44.025 29.3763L47.4131 42.0212L45.8819 42.4314L42.9239 31.3919L42.8498 31.4118L40.3119 34.2888L39.895 32.7329L42.4937 29.7866L44.025 29.3763ZM55.0476 40.1608C54.3232 40.3549 53.6321 40.3857 52.9746 40.253C52.317 40.1204 51.746 39.8499 51.2615 39.4415C50.7771 39.0331 50.4324 38.5122 50.2274 37.8789L51.7092 37.4818C51.9202 38.0385 52.3063 38.4424 52.8677 38.6935C53.4321 38.9393 54.0374 38.9756 54.6836 38.8025C55.2023 38.6635 55.6307 38.4185 55.9691 38.0676C56.3115 37.7156 56.5412 37.2967 56.6581 36.8109C56.778 36.32 56.7657 35.8049 56.6212 35.2657C56.4734 34.7141 56.2202 34.2548 55.8615 33.8877C55.5059 33.5153 55.0845 33.2599 54.5974 33.1213C54.1102 32.9827 53.5965 32.9836 53.0562 33.1239C52.6682 33.2235 52.287 33.3896 51.9125 33.6223C51.537 33.8508 51.2429 34.0951 51.0302 34.355L49.5515 34.566L48.6495 28.1372L55.2189 26.3769L55.5828 27.7352L50.2977 29.1514L50.8524 32.9998L50.9265 32.9799C51.1306 32.7046 51.41 32.4467 51.7647 32.206C52.1193 31.9654 52.5086 31.7883 52.9326 31.6747C53.7064 31.4674 54.4455 31.4679 55.1499 31.6762C55.8572 31.8793 56.4692 32.2535 56.9859 32.7989C57.5068 33.3431 57.8769 34.0248 58.0964 34.844C58.3126 35.6507 58.3245 36.4196 58.1321 37.1505C57.9428 37.8762 57.5823 38.5067 57.0507 39.0417C56.5179 39.5727 55.8503 39.9457 55.0476 40.1608Z" fill="black"/>
<path d="M44.025 29.3763L44.5079 29.2469C44.4365 28.9802 44.1623 28.8219 43.8955 28.8933L44.025 29.3763ZM47.4131 42.0212L47.5425 42.5041C47.8093 42.4326 47.9676 42.1585 47.8961 41.8917L47.4131 42.0212ZM45.8819 42.4314L45.399 42.5609C45.4704 42.8276 45.7446 42.9859 46.0113 42.9144L45.8819 42.4314ZM42.9239 31.3919L43.4069 31.2625C43.3354 30.9958 43.0612 30.8375 42.7945 30.9089L42.9239 31.3919ZM42.8498 31.4118L42.7204 30.9288C42.6253 30.9543 42.5399 31.0072 42.4748 31.081L42.8498 31.4118ZM40.3119 34.2888L39.829 34.4182C39.8767 34.5962 40.0183 34.7335 40.1977 34.7756C40.377 34.8177 40.565 34.7577 40.6869 34.6196L40.3119 34.2888ZM39.895 32.7329L39.52 32.4021C39.4093 32.5278 39.3687 32.7005 39.4121 32.8623L39.895 32.7329ZM42.4937 29.7866L42.3643 29.3036C42.2693 29.3291 42.1839 29.3821 42.1188 29.4559L42.4937 29.7866ZM44.025 29.3763L43.542 29.5057L46.9302 42.1506L47.4131 42.0212L47.8961 41.8917L44.5079 29.2469L44.025 29.3763ZM47.4131 42.0212L47.2837 41.5382L45.7525 41.9485L45.8819 42.4314L46.0113 42.9144L47.5425 42.5041L47.4131 42.0212ZM45.8819 42.4314L46.3649 42.302L43.4069 31.2625L42.9239 31.3919L42.4409 31.5213L45.399 42.5609L45.8819 42.4314ZM42.9239 31.3919L42.7945 30.9089L42.7204 30.9288L42.8498 31.4118L42.9792 31.8947L43.0533 31.8749L42.9239 31.3919ZM42.8498 31.4118L42.4748 31.081L39.937 33.958L40.3119 34.2888L40.6869 34.6196L43.2248 31.7425L42.8498 31.4118ZM40.3119 34.2888L40.7949 34.1594L40.378 32.6035L39.895 32.7329L39.4121 32.8623L39.829 34.4182L40.3119 34.2888ZM39.895 32.7329L40.27 33.0636L42.8687 30.1173L42.4937 29.7866L42.1188 29.4559L39.52 32.4021L39.895 32.7329ZM42.4937 29.7866L42.6232 30.2696L44.1544 29.8593L44.025 29.3763L43.8955 28.8933L42.3643 29.3036L42.4937 29.7866ZM52.9746 40.253L52.8757 40.7432L52.8757 40.7432L52.9746 40.253ZM51.2615 39.4415L51.5838 39.0592L51.5838 39.0592L51.2615 39.4415ZM50.2274 37.8789L50.098 37.3959C49.9656 37.4314 49.8536 37.5197 49.7881 37.6401C49.7227 37.7605 49.7095 37.9025 49.7517 38.0329L50.2274 37.8789ZM51.7092 37.4818L52.1768 37.3047C52.0858 37.0646 51.8278 36.9324 51.5798 36.9989L51.7092 37.4818ZM52.8677 38.6935L52.6636 39.1499L52.668 39.1519L52.8677 38.6935ZM55.9691 38.0676L55.6106 37.719L55.6091 37.7206L55.9691 38.0676ZM56.6581 36.8109L56.1723 36.6923L56.1719 36.6939L56.6581 36.8109ZM55.8615 33.8877L55.4999 34.233L55.5039 34.2371L55.8615 33.8877ZM53.0562 33.1239L53.1805 33.6082L53.1819 33.6079L53.0562 33.1239ZM51.9125 33.6223L52.1725 34.0494L52.1765 34.047L51.9125 33.6223ZM51.0302 34.355L51.1008 34.85C51.2249 34.8323 51.3378 34.7687 51.4172 34.6717L51.0302 34.355ZM49.5515 34.566L49.0563 34.6354C49.0748 34.7669 49.1448 34.8857 49.2509 34.9655C49.3571 35.0454 49.4906 35.0797 49.6221 35.0609L49.5515 34.566ZM48.6495 28.1372L48.5201 27.6542C48.2761 27.7196 48.1192 27.9566 48.1543 28.2066L48.6495 28.1372ZM55.2189 26.3769L55.7018 26.2475C55.6304 25.9808 55.3562 25.8225 55.0895 25.8939L55.2189 26.3769ZM55.5828 27.7352L55.7122 28.2182C55.979 28.1467 56.1373 27.8726 56.0658 27.6058L55.5828 27.7352ZM50.2977 29.1514L50.1683 28.6684C49.9236 28.734 49.7667 28.9721 49.8028 29.2227L50.2977 29.1514ZM50.8524 32.9998L50.3575 33.0711C50.3779 33.2125 50.4578 33.3385 50.5771 33.4172C50.6965 33.4959 50.8437 33.5197 50.9818 33.4827L50.8524 32.9998ZM50.9265 32.9799L51.0559 33.4629C51.1649 33.4337 51.2608 33.3684 51.3281 33.2778L50.9265 32.9799ZM55.1499 31.6762L55.008 32.1557L55.0119 32.1568L55.1499 31.6762ZM56.9859 32.7989L56.623 33.1428L56.6247 33.1446L56.9859 32.7989ZM58.1321 37.1505L57.6486 37.0233L57.6483 37.0243L58.1321 37.1505ZM57.0507 39.0417L57.4036 39.3959L57.4054 39.3941L57.0507 39.0417ZM55.0476 40.1608L54.9182 39.6778C54.2594 39.8544 53.6468 39.8786 53.0734 39.7629L52.9746 40.253L52.8757 40.7432C53.6174 40.8928 54.3869 40.8555 55.177 40.6438L55.0476 40.1608ZM52.9746 40.253L53.0734 39.7629C52.4932 39.6459 52.0002 39.4103 51.5838 39.0592L51.2615 39.4415L50.9392 39.8237C51.4917 40.2895 52.1408 40.595 52.8757 40.7432L52.9746 40.253ZM51.2615 39.4415L51.5838 39.0592C51.1746 38.7142 50.8808 38.274 50.7031 37.7249L50.2274 37.8789L49.7517 38.0329C49.984 38.7504 50.3797 39.3519 50.9392 39.8237L51.2615 39.4415ZM50.2274 37.8789L50.3568 38.3619L51.8386 37.9648L51.7092 37.4818L51.5798 36.9989L50.098 37.3959L50.2274 37.8789ZM51.7092 37.4818L51.2417 37.659C51.5015 38.3447 51.9852 38.8465 52.6636 39.1499L52.8677 38.6935L53.0718 38.237C52.6274 38.0383 52.3389 37.7324 52.1768 37.3047L51.7092 37.4818ZM52.8677 38.6935L52.668 39.1519C53.3454 39.4469 54.0676 39.4852 54.813 39.2854L54.6836 38.8025L54.5542 38.3195C54.0072 38.4661 53.5188 38.4317 53.0674 38.2351L52.8677 38.6935ZM54.6836 38.8025L54.813 39.2854C55.4103 39.1254 55.9214 38.8375 56.329 38.4146L55.9691 38.0676L55.6091 37.7206C55.3401 37.9996 54.9943 38.2016 54.5542 38.3195L54.6836 38.8025ZM55.9691 38.0676L56.3275 38.4162C56.7336 37.9987 57.0066 37.4994 57.1442 36.9279L56.6581 36.8109L56.1719 36.6939C56.0757 37.094 55.8894 37.4324 55.6106 37.719L55.9691 38.0676ZM56.6581 36.8109L57.1438 36.9296C57.2857 36.3487 57.2681 35.748 57.1042 35.1363L56.6212 35.2657L56.1382 35.3951C56.2633 35.8619 56.2703 36.2913 56.1723 36.6923L56.6581 36.8109ZM56.6212 35.2657L57.1042 35.1363C56.9367 34.5114 56.6443 33.9734 56.2192 33.5383L55.8615 33.8877L55.5039 34.2371C55.796 34.5361 56.0101 34.9169 56.1382 35.3951L56.6212 35.2657ZM55.8615 33.8877L56.2231 33.5423C55.807 33.1067 55.3085 32.8037 54.7342 32.6404L54.5974 33.1213L54.4605 33.6022C54.8605 33.716 55.2047 33.9239 55.5 34.233L55.8615 33.8877ZM54.5974 33.1213L54.7342 32.6404C54.1528 32.4749 53.548 32.4796 52.9305 32.64L53.0562 33.1239L53.1819 33.6079C53.6451 33.4875 54.0677 33.4904 54.4605 33.6022L54.5974 33.1213ZM53.0562 33.1239L52.9319 32.6396C52.4899 32.753 52.062 32.9407 51.6486 33.1976L51.9125 33.6223L52.1765 34.047C52.5119 33.8385 52.8464 33.694 53.1805 33.6082L53.0562 33.1239ZM51.9125 33.6223L51.6526 33.1952C51.2429 33.4445 50.9009 33.7236 50.6433 34.0384L51.0302 34.355L51.4172 34.6717C51.585 34.4666 51.8312 34.2571 52.1725 34.0494L51.9125 33.6223ZM51.0302 34.355L50.9596 33.86L49.4809 34.071L49.5515 34.566L49.6221 35.0609L51.1008 34.85L51.0302 34.355ZM49.5515 34.566L50.0466 34.4965L49.1446 28.0677L48.6495 28.1372L48.1543 28.2066L49.0563 34.6354L49.5515 34.566ZM48.6495 28.1372L48.7789 28.6201L55.3483 26.8599L55.2189 26.3769L55.0895 25.8939L48.5201 27.6542L48.6495 28.1372ZM55.2189 26.3769L54.7359 26.5063L55.0999 27.8647L55.5828 27.7352L56.0658 27.6058L55.7018 26.2475L55.2189 26.3769ZM55.5828 27.7352L55.4534 27.2523L50.1683 28.6684L50.2977 29.1514L50.4271 29.6344L55.7122 28.2182L55.5828 27.7352ZM50.2977 29.1514L49.8028 29.2227L50.3575 33.0711L50.8524 32.9998L51.3473 32.9284L50.7926 29.0801L50.2977 29.1514ZM50.8524 32.9998L50.9818 33.4827L51.0559 33.4629L50.9265 32.9799L50.7971 32.4969L50.723 32.5168L50.8524 32.9998ZM50.9265 32.9799L51.3281 33.2778C51.4916 33.0573 51.7261 32.8364 52.0454 32.6198L51.7647 32.206L51.484 31.7923C51.094 32.0569 50.7697 32.3519 50.5249 32.6821L50.9265 32.9799ZM51.7647 32.206L52.0454 32.6198C52.3527 32.4113 52.6907 32.2572 53.062 32.1577L52.9326 31.6747L52.8032 31.1918C52.3266 31.3195 51.8859 31.5196 51.484 31.7923L51.7647 32.206ZM52.9326 31.6747L53.062 32.1577C53.7552 31.972 54.4 31.9758 55.008 32.1557L55.1499 31.6762L55.2917 31.1967C54.491 30.9599 53.6577 30.9628 52.8032 31.1918L52.9326 31.6747ZM55.1499 31.6762L55.0119 32.1568C55.6315 32.3347 56.1664 32.6608 56.623 33.1428L56.9859 32.7989L57.3489 32.455C56.7721 31.8462 56.0829 31.4239 55.2878 31.1956L55.1499 31.6762ZM56.9859 32.7989L56.6247 33.1446C57.0804 33.6208 57.4129 34.2251 57.6134 34.9734L58.0964 34.844L58.5794 34.7145C58.3409 33.8246 57.9331 33.0655 57.3472 32.4532L56.9859 32.7989ZM58.0964 34.844L57.6134 34.9734C57.8095 35.7051 57.8165 36.3851 57.6486 37.0233L58.1321 37.1505L58.6156 37.2778C58.8324 36.4541 58.8156 35.5963 58.5794 34.7145L58.0964 34.844ZM58.1321 37.1505L57.6483 37.0243C57.4814 37.664 57.1657 38.2165 56.6959 38.6893L57.0507 39.0417L57.4054 39.3941C57.9989 38.7968 58.4041 38.0885 58.6159 37.2768L58.1321 37.1505ZM57.0507 39.0417L56.6977 38.6876C56.2333 39.1505 55.6454 39.483 54.9182 39.6778L55.0476 40.1608L55.177 40.6438C56.0551 40.4085 56.8026 39.9949 57.4036 39.3959L57.0507 39.0417Z" fill="black"/>
</svg>
