<svg width="64" height="64" viewBox="0 0 64 64" fill="none" xmlns="http://www.w3.org/2000/svg">
<path d="M50 12H14C12.8954 12 12 12.8954 12 14V34C12 35.1046 12.8954 36 14 36H50C51.1046 36 52 35.1046 52 34V14C52 12.8954 51.1046 12 50 12Z" stroke="black" stroke-width="2"/>
<path d="M32 36V52" stroke="black" stroke-width="2"/>
<path d="M32 52L24 60" stroke="black" stroke-width="2"/>
<path d="M32 52L40 60" stroke="black" stroke-width="2"/>
<path d="M20 20C24 20 24 24 28 24C32 24 32 20 36 20C40 20 40 24 44 24" stroke="black" stroke-width="2" stroke-dasharray="1 3"/>
</svg>
